<svg xmlns="http://www.w3.org/2000/svg" width="606" height="441" viewBox="0 0 606.1 440.5" class="undefined">
<style>
  .a{
    fill:none;
    stroke-dasharray:199999.99999999997;
    stroke-linejoin:round;
    stroke-width:2;
    stroke:#010101;
  }
  .b{
    fill:#D4EAD5;
  }
  .c{
    fill:#B0E1F0;
    stroke-width:2;
    stroke:#414042;
  }
  .d{
    fill:#010101;
  }
  .e{
    fill:#4C7FC1;
    stroke-width:2;
    stroke:#000;
  }
  .f{
    fill:#FFF;
  }
  .g{
    fill:#70C59B;
    stroke-width:2;
    stroke:#000;
  }
  .h{
    fill:none;
    stroke-linejoin:round;
    stroke-width:2;
    stroke:#010101;
  }
  .i{
    fill:#94CA54;
    stroke-width:2;
    stroke:#000;
  }
  .j{
    fill:none;
    stroke-dasharray:99999.99999999999;
    stroke-linejoin:round;
    stroke-width:2;
    stroke:#010101;
  }
  .k{
    fill:#E6E7E8;
    stroke-width:2;
    stroke:#00A651;
  }
  .l{
    fill:#FDC010;
  }
  .m{
    fill:#F6EB16;
    stroke-width:2;
    stroke:#000;
  }
  .n{
    fill:none;
    stroke-linejoin:round;
    stroke-width:3;
    stroke:#010101;
  }
  .o{
    fill:#4C7FC1;
  }
  .p{
    fill:#04B04F;
  }
  .q{
    fill:#414042;
  }
  .r{
    fill:none;
    stroke-width:2;
    stroke:#000;
  }
</style>
    <filter id="blur-filter" x="-2" y="-2" width="200%" height="200%">
    <feGaussianBlur in="SourceGraphic" stdDeviation="2" />
    </filter>

    <polyline points=" 541.7 266.9 540.8 266.9 540.8 11.5 215.6 11.5 215.6 42.1 " class="a"/>
    <a href = "https://github.com/pfpsim/pfpdb" class = "flowsvg hvr-grow">
    <polygon points="319.5 266.8 585 266.8 585 425.3 319.5 425.3 " class="b"/> </a>
    <a href = "https://github.com/pfpsim/p4-behavioral-model" class = "flowsvg hvr-grow">
    <polygon points="319.5 47.8 466.8 47.8 466.8 259.9 319.5 259.9 " class="c glow"/> </a>
      <path d="M342.3 64.6l2.5-0.2c0.2 0.9 0.5 1.5 0.9 1.9 0.5 0.4 1.1 0.6 1.9 0.6 0.8 0 1.5-0.2 1.9-0.5 0.4-0.4 0.6-0.8 0.6-1.2 0-0.3-0.1-0.6-0.3-0.8 -0.2-0.2-0.5-0.4-0.9-0.6 -0.3-0.1-1-0.3-2.1-0.6 -1.4-0.3-2.4-0.8-2.9-1.3 -0.8-0.7-1.2-1.6-1.2-2.6 0-0.7 0.2-1.3 0.6-1.8 0.4-0.6 0.9-1 1.6-1.3 0.7-0.3 1.5-0.4 2.5-0.4 1.6 0 2.8 0.4 3.7 1.1 0.8 0.7 1.2 1.7 1.3 2.8l-2.6 0.1c-0.1-0.7-0.4-1.1-0.7-1.4s-0.9-0.4-1.6-0.4c-0.8 0-1.3 0.2-1.8 0.5 -0.3 0.2-0.4 0.5-0.4 0.8 0 0.3 0.1 0.6 0.4 0.8 0.3 0.3 1.1 0.6 2.4 0.9 1.3 0.3 2.2 0.6 2.8 0.9 0.6 0.3 1.1 0.8 1.4 1.3 0.3 0.6 0.5 1.2 0.5 2.1 0 0.7-0.2 1.4-0.6 2.1 -0.4 0.6-1 1.1-1.7 1.4 -0.7 0.3-1.7 0.5-2.8 0.5 -1.6 0-2.9-0.4-3.8-1.1S342.5 66.1 342.3 64.6z" class="d"/>
      <path d="M356.7 68.8l-3-9.3h2.4l1.7 6.1 1.6-6.1h2.4l1.6 6.1 1.8-6.1h2.4l-3 9.3h-2.4l-1.6-6 -1.6 6H356.7z" class="d"/>
      <path d="M369.4 58.2v-2.3h2.5v2.3H369.4zM369.4 68.8v-9.3h2.5v9.3H369.4z" class="d"/>
      <path d="M378.6 59.5v2h-1.7v3.8c0 0.8 0 1.2 0 1.3 0 0.1 0.1 0.2 0.2 0.3 0.1 0.1 0.3 0.1 0.4 0.1 0.2 0 0.6-0.1 1-0.2l0.2 1.9c-0.6 0.2-1.2 0.4-2 0.4 -0.4 0-0.8-0.1-1.2-0.2 -0.4-0.1-0.6-0.3-0.8-0.6 -0.2-0.2-0.3-0.6-0.3-1 -0.1-0.3-0.1-0.9-0.1-1.7v-4.1h-1.1v-2h1.1V57.7l2.5-1.4v3.3h1.7V59.5z" class="d"/>
      <path d="M388.4 62.3l-2.4 0.4c-0.1-0.5-0.3-0.9-0.6-1.1 -0.3-0.2-0.7-0.4-1.1-0.4 -0.6 0-1.1 0.2-1.5 0.6 -0.4 0.4-0.5 1.1-0.5 2.1 0 1.1 0.2 1.9 0.6 2.3 0.4 0.5 0.9 0.7 1.5 0.7 0.5 0 0.9-0.1 1.2-0.4 0.3-0.3 0.5-0.7 0.6-1.4l2.4 0.4c-0.3 1.1-0.7 2-1.4 2.5 -0.7 0.6-1.7 0.9-2.9 0.9 -1.4 0-2.5-0.4-3.3-1.3 -0.8-0.9-1.2-2.1-1.2-3.6 0-1.5 0.4-2.7 1.2-3.6 0.8-0.9 1.9-1.3 3.3-1.3 1.1 0 2 0.2 2.7 0.7C387.7 60.5 388.1 61.3 388.4 62.3z" class="d"/>
      <path d="M392.7 56v4.7c0.8-0.9 1.7-1.4 2.9-1.4 0.6 0 1.1 0.1 1.5 0.3 0.5 0.2 0.8 0.5 1 0.8 0.2 0.3 0.4 0.7 0.5 1.1 0.1 0.4 0.1 1 0.1 1.9v5.5h-2.5v-4.9c0-1 0-1.6-0.1-1.9 -0.1-0.3-0.3-0.5-0.5-0.6 -0.2-0.2-0.5-0.2-0.9-0.2 -0.4 0-0.8 0.1-1.1 0.3 -0.3 0.2-0.6 0.5-0.7 0.9 -0.1 0.4-0.2 1-0.2 1.8v4.7h-2.5V56H392.7z" class="d"/>
      <path d="M416.9 68.8h-2.8l-1.1-2.9h-5.1l-1.1 2.9h-2.8l5-12.9h2.8L416.9 68.8zM412.1 63.7l-1.8-4.8 -1.7 4.8H412.1z" class="d"/>
      <path d="M417.7 59.5h2.3v1.4c0.3-0.5 0.7-0.8 1.2-1.1 0.5-0.3 1.1-0.4 1.7-0.4 1.1 0 2 0.4 2.8 1.3s1.1 2 1.1 3.6c0 1.6-0.4 2.8-1.1 3.6s-1.7 1.3-2.8 1.3c-0.5 0-1-0.1-1.4-0.3 -0.4-0.2-0.9-0.6-1.3-1.1v4.7h-2.5V59.5zM420.1 64c0 1 0.2 1.8 0.6 2.3s0.9 0.8 1.5 0.8c0.6 0 1.1-0.2 1.4-0.7 0.4-0.5 0.6-1.2 0.6-2.3 0-1-0.2-1.7-0.6-2.2s-0.9-0.7-1.5-0.7c-0.6 0-1.1 0.2-1.5 0.7C420.3 62.4 420.1 63.1 420.1 64z" class="d"/>
      <path d="M428.7 59.5h2.3v1.4c0.3-0.5 0.7-0.8 1.2-1.1s1.1-0.4 1.7-0.4c1.1 0 2 0.4 2.8 1.3s1.1 2 1.1 3.6c0 1.6-0.4 2.8-1.1 3.6s-1.7 1.3-2.8 1.3c-0.5 0-1-0.1-1.4-0.3 -0.4-0.2-0.9-0.6-1.3-1.1v4.7h-2.5V59.5zM431.2 64c0 1 0.2 1.8 0.6 2.3s0.9 0.8 1.5 0.8c0.6 0 1.1-0.2 1.4-0.7s0.6-1.2 0.6-2.3c0-1-0.2-1.7-0.6-2.2 -0.4-0.5-0.9-0.7-1.5-0.7 -0.6 0-1.1 0.2-1.5 0.7C431.4 62.4 431.2 63.1 431.2 64z" class="d"/>
    <polygon points="339 80.8 443.4 80.8 443.4 115.5 339 115.5 " class="e"/>
      <path d="M368.2 98.4l-2.2-0.4c0.3-0.9 0.7-1.6 1.3-2s1.5-0.6 2.7-0.6c1.1 0 1.9 0.1 2.5 0.4 0.5 0.3 0.9 0.6 1.1 1 0.2 0.4 0.3 1.1 0.3 2.2l0 2.9c0 0.8 0 1.4 0.1 1.8 0.1 0.4 0.2 0.8 0.4 1.3h-2.4c-0.1-0.2-0.1-0.4-0.2-0.7 0-0.1-0.1-0.2-0.1-0.3 -0.4 0.4-0.9 0.7-1.4 0.9 -0.5 0.2-1 0.3-1.5 0.3 -1 0-1.7-0.3-2.3-0.8 -0.6-0.5-0.8-1.2-0.8-2 0-0.5 0.1-1 0.4-1.4s0.6-0.7 1.1-0.9c0.5-0.2 1.1-0.4 2-0.6 1.2-0.2 2-0.4 2.4-0.6V98.5c0-0.5-0.1-0.8-0.4-1 -0.2-0.2-0.7-0.3-1.3-0.3 -0.4 0-0.8 0.1-1 0.3C368.5 97.6 368.3 97.9 368.2 98.4zM371.5 100.4c-0.3 0.1-0.8 0.2-1.5 0.4s-1.1 0.3-1.3 0.4c-0.3 0.2-0.5 0.5-0.5 0.9 0 0.3 0.1 0.6 0.4 0.9 0.3 0.3 0.6 0.4 1 0.4 0.4 0 0.9-0.1 1.3-0.4 0.3-0.2 0.5-0.5 0.6-0.8 0.1-0.2 0.1-0.6 0.1-1.2V100.4L371.5 100.4z" class="f"/>
      <path d="M376.3 95.5h2.3v1.4c0.3-0.5 0.7-0.8 1.2-1.1s1.1-0.4 1.7-0.4c1.1 0 2 0.4 2.8 1.3 0.8 0.8 1.1 2 1.1 3.6 0 1.6-0.4 2.8-1.1 3.6s-1.7 1.3-2.8 1.3c-0.5 0-1-0.1-1.4-0.3 -0.4-0.2-0.9-0.6-1.3-1.1v4.7h-2.5V95.5L376.3 95.5zM378.7 100c0 1 0.2 1.8 0.6 2.3s0.9 0.8 1.5 0.8c0.6 0 1.1-0.2 1.4-0.7 0.4-0.5 0.6-1.2 0.6-2.3 0-1-0.2-1.7-0.6-2.2s-0.9-0.7-1.5-0.7c-0.6 0-1.1 0.2-1.5 0.7C378.9 98.4 378.7 99.1 378.7 100z" class="f"/>
      <path d="M387.3 95.5h2.3v1.4c0.3-0.5 0.7-0.8 1.2-1.1s1.1-0.4 1.7-0.4c1.1 0 2 0.4 2.8 1.3s1.1 2 1.1 3.6c0 1.6-0.4 2.8-1.1 3.6s-1.7 1.3-2.8 1.3c-0.5 0-1-0.1-1.4-0.3 -0.4-0.2-0.9-0.6-1.3-1.1v4.7h-2.5V95.5L387.3 95.5zM389.8 100c0 1 0.2 1.8 0.6 2.3s0.9 0.8 1.5 0.8c0.6 0 1.1-0.2 1.4-0.7s0.6-1.2 0.6-2.3c0-1-0.2-1.7-0.6-2.2 -0.4-0.5-0.9-0.7-1.5-0.7 -0.6 0-1.1 0.2-1.5 0.7C390 98.4 389.8 99.1 389.8 100z" class="f"/>
      <path d="M398.4 104.8v-2.5h2.5v2.5H398.4z" class="f"/>
      <path d="M403.4 95.5h2.3v1.4c0.3-0.5 0.7-0.8 1.2-1.1 0.5-0.3 1.1-0.4 1.7-0.4 1.1 0 2 0.4 2.8 1.3 0.8 0.8 1.1 2 1.1 3.6 0 1.6-0.4 2.8-1.1 3.6 -0.8 0.9-1.7 1.3-2.8 1.3 -0.5 0-1-0.1-1.4-0.3 -0.4-0.2-0.9-0.6-1.3-1.1v4.7h-2.5V95.5L403.4 95.5zM405.8 100c0 1 0.2 1.8 0.6 2.3s0.9 0.8 1.5 0.8c0.6 0 1.1-0.2 1.4-0.7 0.4-0.5 0.6-1.2 0.6-2.3 0-1-0.2-1.7-0.6-2.2 -0.4-0.5-0.9-0.7-1.5-0.7 -0.6 0-1.1 0.2-1.5 0.7C406 98.4 405.8 99.1 405.8 100z" class="f"/>
      <path d="M418.8 104.8v-2.6h-5.3v-2.2l5.6-8.2h2.1v8.2h1.6v2.2h-1.6v2.6H418.8zM418.8 100.1v-4.4l-3 4.4H418.8z" class="f"/>
    <path d="M339 146.9c0-4.3 3.5-7.8 7.8-7.8h88.9c4.3 0 7.8 3.5 7.8 7.8v31c0 4.3-3.5 7.8-7.8 7.8h-88.9c-4.3 0-7.8-3.5-7.8-7.8V146.9z" class="g"/>
      <path d="M381.4 158.3v-12.9h4.2c1.6 0 2.6 0.1 3.1 0.2 0.7 0.2 1.4 0.6 1.9 1.3s0.7 1.5 0.7 2.5c0 0.8-0.1 1.5-0.4 2s-0.7 1-1.1 1.3c-0.4 0.3-0.9 0.5-1.3 0.6 -0.6 0.1-1.5 0.2-2.7 0.2h-1.7v4.9L381.4 158.3 381.4 158.3zM384 147.6v3.7h1.4c1 0 1.7-0.1 2.1-0.2 0.3-0.1 0.6-0.3 0.8-0.6 0.2-0.3 0.3-0.6 0.3-1 0-0.5-0.1-0.9-0.4-1.2s-0.6-0.5-1-0.6c-0.3-0.1-0.9-0.1-1.9-0.1H384L384 147.6z" class="f"/>
      <path d="M397.7 158.3v-2.6h-5.3v-2.2l5.6-8.2h2.1v8.2h1.6v2.2h-1.6v2.6H397.7zM397.7 153.6v-4.4l-3 4.4H397.7z" class="f"/>
      <path d="M361.7 175.2l2.5 0.8c-0.4 1.4-1 2.5-1.9 3.1 -0.9 0.7-2 1-3.4 1 -1.7 0-3.1-0.6-4.2-1.8s-1.7-2.8-1.7-4.8c0-2.1 0.6-3.8 1.7-5s2.6-1.8 4.4-1.8c1.6 0 2.9 0.5 3.8 1.4 0.6 0.6 1 1.3 1.3 2.4l-2.6 0.6c-0.2-0.7-0.5-1.2-1-1.6 -0.5-0.4-1.1-0.6-1.8-0.6 -1 0-1.7 0.3-2.3 1 -0.6 0.7-0.9 1.8-0.9 3.3 0 1.6 0.3 2.8 0.9 3.5 0.6 0.7 1.3 1 2.3 1 0.7 0 1.3-0.2 1.8-0.7S361.5 176.1 361.7 175.2z" class="f"/>
      <path d="M365.8 175.1c0-0.8 0.2-1.6 0.6-2.4 0.4-0.8 1-1.4 1.7-1.8 0.7-0.4 1.6-0.6 2.5-0.6 1.4 0 2.6 0.5 3.5 1.4 0.9 0.9 1.4 2.1 1.4 3.5 0 1.4-0.5 2.6-1.4 3.5 -0.9 0.9-2.1 1.4-3.4 1.4 -0.9 0-1.7-0.2-2.4-0.6s-1.4-1-1.8-1.7C366 177.1 365.8 176.2 365.8 175.1zM368.4 175.3c0 0.9 0.2 1.6 0.7 2.1 0.4 0.5 1 0.7 1.6 0.7 0.6 0 1.2-0.2 1.6-0.7 0.4-0.5 0.7-1.2 0.7-2.1 0-0.9-0.2-1.6-0.7-2.1 -0.4-0.5-1-0.7-1.6-0.7 -0.6 0-1.2 0.2-1.6 0.7C368.6 173.6 368.4 174.3 368.4 175.3z" class="f"/>
      <path d="M377.3 170.6h2.3v1.3c0.8-1 1.8-1.5 2.9-1.5 0.6 0 1.1 0.1 1.6 0.4s0.8 0.6 1.1 1.1c0.4-0.5 0.9-0.9 1.3-1.1 0.5-0.2 1-0.4 1.5-0.4 0.7 0 1.3 0.1 1.7 0.4 0.5 0.3 0.8 0.7 1.1 1.2 0.2 0.4 0.3 1 0.3 1.9v6h-2.5v-5.3c0-0.9-0.1-1.5-0.3-1.8 -0.2-0.4-0.6-0.5-1.1-0.5 -0.3 0-0.7 0.1-1 0.3s-0.5 0.5-0.7 0.9c-0.1 0.4-0.2 1.1-0.2 1.9v4.5h-2.5v-5.1c0-0.9 0-1.5-0.1-1.8 -0.1-0.3-0.2-0.5-0.4-0.6 -0.2-0.1-0.4-0.2-0.8-0.2 -0.4 0-0.7 0.1-1 0.3 -0.3 0.2-0.5 0.5-0.7 0.9 -0.1 0.4-0.2 1-0.2 1.9v4.5h-2.5L377.3 170.6 377.3 170.6z" class="f"/>
      <path d="M393.3 170.6h2.3v1.4c0.3-0.5 0.7-0.8 1.2-1.1s1.1-0.4 1.7-0.4c1.1 0 2 0.4 2.8 1.3 0.8 0.8 1.1 2 1.1 3.6 0 1.6-0.4 2.8-1.1 3.6 -0.8 0.9-1.7 1.3-2.8 1.3 -0.5 0-1-0.1-1.4-0.3 -0.4-0.2-0.9-0.6-1.3-1.1v4.7h-2.5V170.6zM395.8 175.1c0 1 0.2 1.8 0.6 2.3s0.9 0.8 1.5 0.8c0.6 0 1.1-0.2 1.4-0.7 0.4-0.5 0.6-1.2 0.6-2.3 0-1-0.2-1.7-0.6-2.2 -0.4-0.5-0.9-0.7-1.5-0.7 -0.6 0-1.1 0.2-1.5 0.7C396 173.5 395.8 174.2 395.8 175.1z" class="f"/>
      <path d="M404.4 169.3v-2.3h2.5v2.3H404.4zM404.4 179.9v-9.3h2.5v9.3H404.4z" class="f"/>
      <path d="M409.5 179.9v-12.9h2.5v12.9H409.5z" class="f"/>
      <path d="M419.9 177l2.5 0.4c-0.3 0.9-0.8 1.6-1.5 2.1 -0.7 0.5-1.5 0.7-2.6 0.7 -1.6 0-2.8-0.5-3.6-1.6 -0.6-0.8-0.9-1.9-0.9-3.2 0-1.5 0.4-2.8 1.2-3.6 0.8-0.9 1.8-1.3 3.1-1.3 1.4 0 2.5 0.5 3.3 1.4 0.8 0.9 1.2 2.3 1.1 4.2h-6.2c0 0.7 0.2 1.3 0.6 1.7 0.4 0.4 0.9 0.6 1.4 0.6 0.4 0 0.7-0.1 1-0.3C419.6 177.8 419.8 177.4 419.9 177zM420.1 174.5c0-0.7-0.2-1.3-0.6-1.6 -0.4-0.4-0.8-0.6-1.3-0.6 -0.5 0-1 0.2-1.3 0.6 -0.4 0.4-0.5 0.9-0.5 1.6L420.1 174.5 420.1 174.5z" class="f"/>
      <path d="M426.9 179.9h-2.5v-9.3h2.3v1.3c0.4-0.6 0.7-1 1.1-1.2 0.3-0.2 0.7-0.3 1.1-0.3 0.6 0 1.1 0.2 1.6 0.5l-0.8 2.2c-0.4-0.3-0.8-0.4-1.2-0.4 -0.3 0-0.6 0.1-0.9 0.3 -0.2 0.2-0.4 0.5-0.6 1 -0.1 0.5-0.2 1.5-0.2 3.1V179.9L426.9 179.9z" class="f"/>
    <line x1="391.2" y1="115.5" x2="391.2" y2="133.5" class="h"/>
    <polygon points="394.7 132.4 391.2 139.2 387.8 132.4 " class="d"/>
    <polygon points="342.4 211.6 443.4 211.6 443.4 245.6 342.4 245.6 " class="i"/>
      <path d="M358.8 228.8l-2.2-0.4c0.3-0.9 0.7-1.6 1.3-2 0.6-0.4 1.5-0.6 2.7-0.6 1.1 0 1.9 0.1 2.5 0.4 0.5 0.3 0.9 0.6 1.1 1 0.2 0.4 0.3 1.1 0.3 2.2l0 2.9c0 0.8 0 1.4 0.1 1.8 0.1 0.4 0.2 0.8 0.4 1.3h-2.4c-0.1-0.2-0.1-0.4-0.2-0.7 0-0.1-0.1-0.2-0.1-0.3 -0.4 0.4-0.9 0.7-1.4 0.9 -0.5 0.2-1 0.3-1.5 0.3 -1 0-1.7-0.3-2.3-0.8 -0.6-0.5-0.8-1.2-0.8-2 0-0.5 0.1-1 0.4-1.4 0.3-0.4 0.6-0.7 1.1-0.9 0.5-0.2 1.1-0.4 2-0.6 1.2-0.2 2-0.4 2.4-0.6v-0.2c0-0.5-0.1-0.8-0.4-1 -0.2-0.2-0.7-0.3-1.3-0.3 -0.4 0-0.8 0.1-1 0.3C359.2 228 359 228.3 358.8 228.8zM362.1 230.8c-0.3 0.1-0.8 0.2-1.5 0.4 -0.7 0.1-1.1 0.3-1.3 0.4 -0.3 0.2-0.5 0.5-0.5 0.9 0 0.3 0.1 0.6 0.4 0.9s0.6 0.4 1 0.4c0.4 0 0.9-0.1 1.3-0.4 0.3-0.2 0.5-0.5 0.6-0.8 0.1-0.2 0.1-0.6 0.1-1.2V230.8L362.1 230.8z" class="d"/>
      <path d="M366.9 225.9h2.3v1.4c0.3-0.5 0.7-0.8 1.2-1.1 0.5-0.3 1.1-0.4 1.7-0.4 1.1 0 2 0.4 2.8 1.3 0.8 0.8 1.1 2 1.1 3.6 0 1.6-0.4 2.8-1.1 3.6 -0.8 0.9-1.7 1.3-2.8 1.3 -0.5 0-1-0.1-1.4-0.3 -0.4-0.2-0.9-0.6-1.3-1.1v4.7h-2.5V225.9L366.9 225.9zM369.3 230.4c0 1 0.2 1.8 0.6 2.3 0.4 0.5 0.9 0.8 1.5 0.8 0.6 0 1.1-0.2 1.4-0.7 0.4-0.5 0.6-1.2 0.6-2.3 0-1-0.2-1.7-0.6-2.2 -0.4-0.5-0.9-0.7-1.5-0.7 -0.6 0-1.1 0.2-1.5 0.7C369.5 228.8 369.3 229.5 369.3 230.4z" class="d"/>
      <path d="M377.9 225.9h2.3v1.4c0.3-0.5 0.7-0.8 1.2-1.1s1.1-0.4 1.7-0.4c1.1 0 2 0.4 2.8 1.3 0.8 0.8 1.1 2 1.1 3.6 0 1.6-0.4 2.8-1.1 3.6 -0.8 0.9-1.7 1.3-2.8 1.3 -0.5 0-1-0.1-1.4-0.3s-0.9-0.6-1.3-1.1v4.7h-2.5V225.9L377.9 225.9zM380.4 230.4c0 1 0.2 1.8 0.6 2.3 0.4 0.5 0.9 0.8 1.5 0.8 0.6 0 1.1-0.2 1.4-0.7 0.4-0.5 0.6-1.2 0.6-2.3 0-1-0.2-1.7-0.6-2.2 -0.4-0.5-0.9-0.7-1.5-0.7 -0.6 0-1.1 0.2-1.5 0.7S380.4 229.5 380.4 230.4z" class="d"/>
      <path d="M389 235.2v-2.5h2.5v2.5H389z" class="d"/>
      <path d="M396.5 225.9v9c0 1.2-0.1 2-0.2 2.5 -0.2 0.5-0.5 0.9-0.9 1.1 -0.4 0.3-1 0.4-1.7 0.4 -0.2 0-0.5 0-0.8-0.1 -0.3 0-0.6-0.1-0.9-0.2l0.4-2.1c0.1 0 0.2 0 0.3 0.1 0.1 0 0.2 0 0.3 0 0.3 0 0.5-0.1 0.6-0.2 0.2-0.1 0.3-0.2 0.3-0.4 0.1-0.2 0.1-0.6 0.1-1.4v-8.9L396.5 225.9 396.5 225.9zM394 224.6v-2.3h2.5v2.3H394z" class="d"/>
      <path d="M398.2 232.6l2.5-0.4c0.1 0.5 0.3 0.8 0.6 1.1 0.3 0.3 0.8 0.4 1.4 0.4 0.6 0 1.1-0.1 1.4-0.4 0.2-0.2 0.3-0.4 0.3-0.7 0-0.2-0.1-0.3-0.2-0.5 -0.1-0.1-0.4-0.2-0.8-0.3 -2-0.4-3.3-0.8-3.8-1.2 -0.7-0.5-1.1-1.2-1.1-2.1 0-0.8 0.3-1.5 1-2 0.6-0.6 1.6-0.8 3-0.8 1.3 0 2.2 0.2 2.8 0.6s1.1 1 1.3 1.8l-2.3 0.4c-0.1-0.4-0.3-0.6-0.6-0.8 -0.3-0.2-0.7-0.3-1.2-0.3 -0.6 0-1.1 0.1-1.4 0.3 -0.2 0.1-0.3 0.3-0.3 0.5 0 0.2 0.1 0.3 0.2 0.4 0.2 0.2 1 0.4 2.3 0.7 1.3 0.3 2.2 0.7 2.8 1.1 0.5 0.4 0.8 1.1 0.8 1.8 0 0.9-0.4 1.6-1.1 2.2s-1.8 0.9-3.2 0.9c-1.3 0-2.3-0.3-3-0.8C398.9 234.2 398.5 233.5 398.2 232.6z" class="d"/>
      <path d="M408.5 230.4c0-0.8 0.2-1.6 0.6-2.4 0.4-0.8 1-1.4 1.7-1.8 0.7-0.4 1.6-0.6 2.5-0.6 1.4 0 2.6 0.5 3.5 1.4 0.9 0.9 1.4 2.1 1.4 3.5 0 1.4-0.5 2.6-1.4 3.5 -0.9 0.9-2.1 1.4-3.4 1.4 -0.9 0-1.7-0.2-2.4-0.6 -0.8-0.4-1.4-1-1.8-1.7C408.7 232.4 408.5 231.5 408.5 230.4zM411 230.6c0 0.9 0.2 1.6 0.7 2.1 0.4 0.5 1 0.7 1.6 0.7 0.6 0 1.2-0.2 1.6-0.7s0.7-1.2 0.7-2.1c0-0.9-0.2-1.6-0.7-2.1 -0.4-0.5-1-0.7-1.6-0.7 -0.6 0-1.2 0.2-1.6 0.7C411.2 228.9 411 229.6 411 230.6z" class="d"/>
      <path d="M428.6 235.2h-2.5v-4.8c0-1-0.1-1.7-0.2-2 -0.1-0.3-0.3-0.5-0.5-0.7 -0.2-0.2-0.5-0.2-0.9-0.2 -0.4 0-0.8 0.1-1.2 0.4 -0.3 0.2-0.6 0.5-0.7 0.9 -0.1 0.4-0.2 1.1-0.2 2.1v4.2h-2.5v-9.3h2.3v1.4c0.8-1.1 1.8-1.6 3.1-1.6 0.5 0 1 0.1 1.5 0.3s0.8 0.4 1 0.8c0.2 0.3 0.4 0.7 0.5 1 0.1 0.4 0.1 0.9 0.1 1.7V235.2L428.6 235.2z" class="d"/>
    <line x1="393.5" y1="185.7" x2="393.7" y2="206.7" class="h"/>
    <polygon points="397.1 205.5 393.8 212.4 390.3 205.6 " class="d"/>
    <line x1="392.8" y1="245.6" x2="392.8" y2="272.3" class="j"/>
    <polygon points="389.4 271.1 392.8 278 396.2 271.2 " class="d"/>
    <a href = "https://github.com/pfpsim/pfpgen" class = "flowsvg hvr-grow" >
    <polygon points="121.7 47.8 310.1 47.8 310.1 259.9 121.7 259.9 " class="k"/> </a>
      <path d="M157.8 64.6l2.5-0.2c0.2 0.9 0.5 1.5 0.9 1.9 0.5 0.4 1.1 0.6 1.9 0.6 0.8 0 1.5-0.2 1.9-0.5 0.4-0.4 0.6-0.8 0.6-1.2 0-0.3-0.1-0.6-0.3-0.8 -0.2-0.2-0.5-0.4-0.9-0.6 -0.3-0.1-1-0.3-2.1-0.6 -1.4-0.3-2.4-0.8-2.9-1.3 -0.8-0.7-1.2-1.6-1.2-2.6 0-0.7 0.2-1.3 0.6-1.8 0.4-0.6 0.9-1 1.6-1.3 0.7-0.3 1.5-0.4 2.5-0.4 1.6 0 2.8 0.4 3.7 1.1 0.8 0.7 1.2 1.7 1.3 2.8l-2.6 0.1c-0.1-0.7-0.3-1.1-0.7-1.4 -0.4-0.3-0.9-0.4-1.6-0.4 -0.8 0-1.3 0.2-1.8 0.5 -0.3 0.2-0.4 0.5-0.4 0.8 0 0.3 0.1 0.6 0.4 0.8 0.3 0.3 1.1 0.6 2.4 0.9 1.3 0.3 2.2 0.6 2.8 0.9 0.6 0.3 1.1 0.8 1.4 1.3 0.3 0.6 0.5 1.2 0.5 2.1 0 0.7-0.2 1.4-0.6 2.1 -0.4 0.6-1 1.1-1.7 1.4 -0.7 0.3-1.7 0.5-2.8 0.5 -1.6 0-2.9-0.4-3.8-1.1S158 66.1 157.8 64.6z" class="d"/>
      <path d="M172.2 68.8l-3-9.3h2.4l1.7 6.1 1.6-6.1h2.4l1.6 6.1 1.8-6.1h2.4l-3 9.3h-2.4l-1.6-6 -1.6 6H172.2z" class="d"/>
      <path d="M184.9 58.2v-2.3h2.5v2.3H184.9zM184.9 68.8v-9.3h2.5v9.3H184.9z" class="d"/>
      <path d="M194.1 59.5v2h-1.7v3.8c0 0.8 0 1.2 0 1.3 0 0.1 0.1 0.2 0.2 0.3 0.1 0.1 0.3 0.1 0.4 0.1 0.2 0 0.6-0.1 1-0.2l0.2 1.9c-0.6 0.2-1.2 0.4-2 0.4 -0.4 0-0.8-0.1-1.2-0.2 -0.4-0.1-0.6-0.3-0.8-0.6 -0.2-0.2-0.3-0.6-0.3-1 -0.1-0.3-0.1-0.9-0.1-1.7v-4.1h-1.1v-2h1.1V57.7l2.5-1.4v3.3h1.7V59.5z" class="d"/>
      <path d="M203.9 62.3l-2.4 0.4c-0.1-0.5-0.3-0.9-0.6-1.1s-0.7-0.4-1.1-0.4c-0.6 0-1.1 0.2-1.5 0.6 -0.4 0.4-0.5 1.1-0.5 2.1 0 1.1 0.2 1.9 0.6 2.3 0.4 0.5 0.9 0.7 1.5 0.7 0.5 0 0.9-0.1 1.2-0.4 0.3-0.3 0.5-0.7 0.6-1.4l2.4 0.4c-0.3 1.1-0.7 2-1.4 2.5 -0.7 0.6-1.7 0.9-2.9 0.9 -1.4 0-2.5-0.4-3.3-1.3 -0.8-0.9-1.2-2.1-1.2-3.6 0-1.5 0.4-2.7 1.2-3.6 0.8-0.9 1.9-1.3 3.3-1.3 1.1 0 2 0.2 2.7 0.7C203.2 60.5 203.7 61.3 203.9 62.3z" class="d"/>
      <path d="M208.2 56v4.7c0.8-0.9 1.7-1.4 2.9-1.4 0.6 0 1.1 0.1 1.5 0.3s0.8 0.5 1 0.8 0.4 0.7 0.5 1.1c0.1 0.4 0.1 1 0.1 1.9v5.5h-2.5v-4.9c0-1 0-1.6-0.1-1.9 -0.1-0.3-0.3-0.5-0.5-0.6 -0.2-0.2-0.5-0.2-0.9-0.2 -0.4 0-0.8 0.1-1.1 0.3 -0.3 0.2-0.6 0.5-0.7 0.9 -0.1 0.4-0.2 1-0.2 1.8v4.7h-2.5V56H208.2z" class="d"/>
      <path d="M224.4 68.8V58.1h-3.8v-2.2h10.2v2.2h-3.8v10.7H224.4z" class="d"/>
      <path d="M233.1 62.4l-2.2-0.4c0.3-0.9 0.7-1.6 1.3-2 0.6-0.4 1.5-0.6 2.7-0.6 1.1 0 1.9 0.1 2.5 0.4 0.5 0.3 0.9 0.6 1.1 1 0.2 0.4 0.3 1.1 0.3 2.2l0 2.9c0 0.8 0 1.4 0.1 1.8s0.2 0.8 0.4 1.3h-2.4c-0.1-0.2-0.1-0.4-0.2-0.7 0-0.1-0.1-0.2-0.1-0.3 -0.4 0.4-0.9 0.7-1.4 0.9 -0.5 0.2-1 0.3-1.5 0.3 -1 0-1.7-0.3-2.3-0.8 -0.6-0.5-0.8-1.2-0.8-2 0-0.5 0.1-1 0.4-1.4s0.6-0.7 1.1-0.9c0.5-0.2 1.1-0.4 2-0.6 1.2-0.2 2-0.4 2.4-0.6V62.5c0-0.5-0.1-0.8-0.4-1 -0.2-0.2-0.7-0.3-1.3-0.3 -0.4 0-0.8 0.1-1 0.3C233.4 61.6 233.2 61.9 233.1 62.4zM236.4 64.4c-0.3 0.1-0.8 0.2-1.5 0.4s-1.1 0.3-1.3 0.4c-0.3 0.2-0.5 0.5-0.5 0.9 0 0.3 0.1 0.6 0.4 0.9 0.3 0.3 0.6 0.4 1 0.4 0.4 0 0.9-0.1 1.3-0.4 0.3-0.2 0.5-0.5 0.6-0.8 0.1-0.2 0.1-0.6 0.1-1.2V64.4L236.4 64.4z" class="d"/>
      <path d="M243.6 68.8h-2.5v-9.3h2.3v1.3c0.4-0.6 0.7-1 1.1-1.2 0.3-0.2 0.7-0.3 1.1-0.3 0.6 0 1.1 0.2 1.6 0.5l-0.8 2.2c-0.4-0.3-0.8-0.4-1.2-0.4 -0.3 0-0.6 0.1-0.9 0.3 -0.2 0.2-0.4 0.5-0.6 1s-0.2 1.5-0.2 3.1L243.6 68.8 243.6 68.8z" class="d"/>
      <path d="M248 69.5l2.8 0.3c0 0.3 0.2 0.6 0.3 0.7 0.2 0.2 0.6 0.3 1.1 0.3 0.6 0 1.1-0.1 1.5-0.3 0.2-0.1 0.4-0.3 0.5-0.6 0.1-0.2 0.1-0.6 0.1-1.1v-1.4c-0.7 1-1.7 1.5-2.8 1.5 -1.3 0-2.2-0.5-3-1.6 -0.6-0.8-0.9-1.9-0.9-3.1 0-1.6 0.4-2.8 1.1-3.6 0.8-0.8 1.7-1.2 2.8-1.2 1.2 0 2.1 0.5 2.9 1.5v-1.3h2.3v8.4c0 1.1-0.1 1.9-0.3 2.5 -0.2 0.5-0.4 1-0.8 1.3 -0.3 0.3-0.8 0.6-1.3 0.7 -0.5 0.2-1.2 0.3-2.1 0.3 -1.6 0-2.7-0.3-3.4-0.8 -0.7-0.5-1-1.2-1-2.1C248 69.7 248 69.6 248 69.5zM250.2 64c0 1 0.2 1.7 0.6 2.2 0.4 0.5 0.9 0.7 1.4 0.7 0.6 0 1.1-0.2 1.5-0.7 0.4-0.5 0.6-1.2 0.6-2.1 0-1-0.2-1.7-0.6-2.2 -0.4-0.5-0.9-0.7-1.5-0.7 -0.6 0-1.1 0.2-1.5 0.7C250.4 62.3 250.2 63 250.2 64z" class="d"/>
      <path d="M264.6 65.9l2.5 0.4c-0.3 0.9-0.8 1.6-1.5 2.1 -0.7 0.5-1.5 0.7-2.6 0.7 -1.6 0-2.8-0.5-3.6-1.6 -0.6-0.8-0.9-1.9-0.9-3.2 0-1.5 0.4-2.8 1.2-3.6s1.8-1.3 3.1-1.3c1.4 0 2.5 0.5 3.3 1.4 0.8 0.9 1.2 2.3 1.2 4.2h-6.2c0 0.7 0.2 1.3 0.6 1.7 0.4 0.4 0.9 0.6 1.4 0.6 0.4 0 0.7-0.1 1-0.3C264.3 66.7 264.5 66.3 264.6 65.9zM264.8 63.4c0-0.7-0.2-1.3-0.6-1.6 -0.4-0.4-0.8-0.6-1.3-0.6 -0.5 0-1 0.2-1.3 0.6 -0.4 0.4-0.5 0.9-0.5 1.6L264.8 63.4 264.8 63.4z" class="d"/>
      <path d="M273.5 59.5v2h-1.7v3.8c0 0.8 0 1.2 0 1.3 0 0.1 0.1 0.2 0.2 0.3 0.1 0.1 0.3 0.1 0.4 0.1 0.2 0 0.6-0.1 1-0.2l0.2 1.9c-0.6 0.2-1.2 0.4-2 0.4 -0.4 0-0.8-0.1-1.2-0.2 -0.4-0.1-0.6-0.3-0.8-0.6 -0.2-0.2-0.3-0.6-0.3-1 -0.1-0.3-0.1-0.9-0.1-1.7v-4.1h-1.1v-2h1.1V57.7l2.5-1.4v3.3h1.7V59.5z" class="d"/>
    <a href = "https://github.com/pfpsim/pfpgen" class = "flowsvg hvr-grow" >
    <path d="M132.7 146.9c0-4.3 3.5-7.8 7.8-7.8h150.2c4.3 0 7.8 3.5 7.8 7.8v31c0 4.3-3.5 7.8-7.8 7.8h-150.2c-4.3 0-7.8-3.5-7.8-7.8V146.9L132.7 146.9z" class="g"/> </a>
      <path d="M164.3 158.3v-10.7H160.5v-2.2h10.2v2.2h-3.8v10.7H164.3z" class="f"/>
      <path d="M173 151.8l-2.2-0.4c0.3-0.9 0.7-1.6 1.3-2 0.6-0.4 1.5-0.6 2.7-0.6 1.1 0 1.9 0.1 2.5 0.4 0.5 0.3 0.9 0.6 1.1 1 0.2 0.4 0.3 1.1 0.3 2.2l0 2.9c0 0.8 0 1.4 0.1 1.8 0.1 0.4 0.2 0.8 0.4 1.3h-2.4c-0.1-0.2-0.1-0.4-0.2-0.7 0-0.1-0.1-0.2-0.1-0.3 -0.4 0.4-0.9 0.7-1.4 0.9s-1 0.3-1.5 0.3c-1 0-1.7-0.3-2.3-0.8 -0.6-0.5-0.8-1.2-0.8-2 0-0.5 0.1-1 0.4-1.4 0.3-0.4 0.6-0.7 1.1-0.9 0.5-0.2 1.1-0.4 2-0.6 1.2-0.2 2-0.4 2.4-0.6v-0.2c0-0.5-0.1-0.8-0.4-1 -0.2-0.2-0.7-0.3-1.3-0.3 -0.4 0-0.8 0.1-1 0.3C173.3 151.1 173.1 151.4 173 151.8zM176.3 153.8c-0.3 0.1-0.8 0.2-1.5 0.4s-1.1 0.3-1.3 0.4c-0.3 0.2-0.5 0.5-0.5 0.9 0 0.3 0.1 0.6 0.4 0.9 0.3 0.3 0.6 0.4 1 0.4 0.4 0 0.9-0.1 1.3-0.4 0.3-0.2 0.5-0.5 0.6-0.8 0.1-0.2 0.1-0.6 0.1-1.2V153.8L176.3 153.8z" class="f"/>
      <path d="M183.5 158.3h-2.5v-9.3h2.3v1.3c0.4-0.6 0.7-1 1.1-1.2 0.3-0.2 0.7-0.3 1.1-0.3 0.6 0 1.1 0.2 1.6 0.5l-0.8 2.2c-0.4-0.3-0.8-0.4-1.2-0.4 -0.3 0-0.6 0.1-0.9 0.3 -0.2 0.2-0.4 0.5-0.6 1s-0.2 1.5-0.2 3.1L183.5 158.3 183.5 158.3z" class="f"/>
      <path d="M187.9 158.9l2.8 0.3c0 0.3 0.2 0.6 0.3 0.7 0.2 0.2 0.6 0.3 1.1 0.3 0.6 0 1.1-0.1 1.5-0.3 0.2-0.1 0.4-0.3 0.5-0.6 0.1-0.2 0.1-0.6 0.1-1.1v-1.4c-0.7 1-1.7 1.5-2.8 1.5 -1.3 0-2.2-0.5-3-1.6 -0.6-0.8-0.9-1.9-0.9-3.1 0-1.6 0.4-2.8 1.1-3.6 0.8-0.8 1.7-1.2 2.8-1.2 1.2 0 2.1 0.5 2.9 1.5v-1.3h2.3v8.4c0 1.1-0.1 1.9-0.3 2.5 -0.2 0.5-0.4 1-0.8 1.3 -0.3 0.3-0.8 0.6-1.3 0.7 -0.5 0.2-1.2 0.3-2.1 0.3 -1.6 0-2.7-0.3-3.4-0.8s-1-1.2-1-2.1C187.8 159.2 187.8 159.1 187.9 158.9zM190.1 153.5c0 1 0.2 1.7 0.6 2.2 0.4 0.5 0.9 0.7 1.4 0.7 0.6 0 1.1-0.2 1.5-0.7 0.4-0.5 0.6-1.2 0.6-2.1 0-1-0.2-1.7-0.6-2.2 -0.4-0.5-0.9-0.7-1.5-0.7 -0.6 0-1.1 0.2-1.5 0.7C190.3 151.8 190.1 152.5 190.1 153.5z" class="f"/>
      <path d="M204.5 155.4l2.5 0.4c-0.3 0.9-0.8 1.6-1.5 2.1 -0.7 0.5-1.5 0.7-2.6 0.7 -1.6 0-2.8-0.5-3.6-1.6 -0.6-0.8-0.9-1.9-0.9-3.2 0-1.5 0.4-2.8 1.2-3.6s1.8-1.3 3.1-1.3c1.4 0 2.5 0.5 3.3 1.4 0.8 0.9 1.2 2.3 1.2 4.2h-6.2c0 0.7 0.2 1.3 0.6 1.7 0.4 0.4 0.9 0.6 1.4 0.6 0.4 0 0.7-0.1 1-0.3C204.2 156.2 204.4 155.8 204.5 155.4zM204.7 152.9c0-0.7-0.2-1.3-0.6-1.6s-0.8-0.6-1.3-0.6c-0.5 0-1 0.2-1.3 0.6s-0.5 0.9-0.5 1.6L204.7 152.9 204.7 152.9z" class="f"/>
      <path d="M213.4 149v2h-1.7v3.8c0 0.8 0 1.2 0 1.3 0 0.1 0.1 0.2 0.2 0.3 0.1 0.1 0.3 0.1 0.4 0.1 0.2 0 0.6-0.1 1-0.2l0.2 1.9c-0.6 0.2-1.2 0.4-2 0.4 -0.4 0-0.8-0.1-1.2-0.2s-0.6-0.3-0.8-0.6 -0.3-0.6-0.3-1c-0.1-0.3-0.1-0.9-0.1-1.7v-4.1h-1.1v-2h1.1v-1.9l2.5-1.4v3.3h1.7V149z" class="f"/>
      <path d="M220.1 158.3v-12.9h3.9l2.3 8.8 2.3-8.8h3.9v12.9h-2.4v-10.1l-2.6 10.1h-2.5l-2.5-10.1v10.1H220.1z" class="f"/>
      <path d="M234.5 153.5c0-0.8 0.2-1.6 0.6-2.4 0.4-0.8 1-1.4 1.7-1.8 0.7-0.4 1.6-0.6 2.5-0.6 1.4 0 2.6 0.5 3.5 1.4 0.9 0.9 1.4 2.1 1.4 3.5 0 1.4-0.5 2.6-1.4 3.5 -0.9 0.9-2.1 1.4-3.4 1.4 -0.9 0-1.7-0.2-2.4-0.6 -0.8-0.4-1.4-1-1.8-1.7C234.7 155.5 234.5 154.6 234.5 153.5zM237.1 153.7c0 0.9 0.2 1.6 0.7 2.1 0.4 0.5 1 0.7 1.6 0.7s1.2-0.2 1.6-0.7c0.4-0.5 0.7-1.2 0.7-2.1 0-0.9-0.2-1.6-0.7-2.1 -0.4-0.5-1-0.7-1.6-0.7s-1.2 0.2-1.6 0.7C237.3 152 237.1 152.7 237.1 153.7z" class="f"/>
      <path d="M254.7 158.3h-2.3v-1.4c-0.4 0.5-0.8 0.9-1.3 1.2 -0.5 0.3-1 0.4-1.6 0.4 -1.1 0-2-0.4-2.8-1.3 -0.8-0.9-1.1-2.1-1.1-3.6 0-1.6 0.4-2.8 1.1-3.6 0.7-0.8 1.7-1.2 2.8-1.2 1 0 1.9 0.4 2.7 1.3v-4.6h2.5V158.3L254.7 158.3zM248.1 153.5c0 1 0.1 1.7 0.4 2.2 0.4 0.6 1 1 1.7 1 0.6 0 1.1-0.2 1.5-0.7s0.6-1.2 0.6-2.2c0-1.1-0.2-1.8-0.6-2.3 -0.4-0.5-0.9-0.7-1.5-0.7 -0.6 0-1.1 0.2-1.5 0.7C248.3 151.8 248.1 152.5 248.1 153.5z" class="f"/>
      <path d="M262.6 155.4l2.5 0.4c-0.3 0.9-0.8 1.6-1.5 2.1 -0.7 0.5-1.5 0.7-2.6 0.7 -1.6 0-2.8-0.5-3.6-1.6 -0.6-0.8-0.9-1.9-0.9-3.2 0-1.5 0.4-2.8 1.2-3.6s1.8-1.3 3.1-1.3c1.4 0 2.5 0.5 3.3 1.4s1.2 2.3 1.2 4.2h-6.2c0 0.7 0.2 1.3 0.6 1.7 0.4 0.4 0.9 0.6 1.4 0.6 0.4 0 0.7-0.1 1-0.3S262.4 155.8 262.6 155.4zM262.7 152.9c0-0.7-0.2-1.3-0.6-1.6s-0.8-0.6-1.3-0.6c-0.5 0-1 0.2-1.3 0.6 -0.4 0.4-0.5 0.9-0.5 1.6L262.7 152.9 262.7 152.9z" class="f"/>
      <path d="M267.2 158.3v-12.9h2.5v12.9H267.2z" class="f"/>
      <path d="M181.3 175.2v-2.2h5.6v5.1c-0.5 0.5-1.3 1-2.4 1.4 -1 0.4-2.1 0.6-3.1 0.6 -1.3 0-2.5-0.3-3.5-0.8 -1-0.6-1.8-1.4-2.3-2.4 -0.5-1.1-0.8-2.2-0.8-3.4 0-1.3 0.3-2.5 0.8-3.6s1.4-1.8 2.5-2.4c0.8-0.4 1.9-0.6 3.1-0.6 1.6 0 2.8 0.3 3.7 1s1.5 1.6 1.7 2.8l-2.6 0.5c-0.2-0.6-0.5-1.1-1-1.5 -0.5-0.4-1.1-0.5-1.9-0.5 -1.1 0-2 0.4-2.7 1.1 -0.7 0.7-1 1.8-1 3.2 0 1.5 0.3 2.7 1 3.4 0.7 0.8 1.6 1.1 2.7 1.1 0.5 0 1.1-0.1 1.6-0.3s1-0.5 1.4-0.8v-1.6L181.3 175.2 181.3 175.2z" class="f"/>
      <path d="M194.7 177l2.5 0.4c-0.3 0.9-0.8 1.6-1.5 2.1 -0.7 0.5-1.5 0.7-2.6 0.7 -1.6 0-2.8-0.5-3.6-1.6 -0.6-0.8-0.9-1.9-0.9-3.2 0-1.5 0.4-2.8 1.2-3.6 0.8-0.9 1.8-1.3 3.1-1.3 1.4 0 2.5 0.5 3.3 1.4 0.8 0.9 1.2 2.3 1.2 4.2h-6.2c0 0.7 0.2 1.3 0.6 1.7 0.4 0.4 0.9 0.6 1.4 0.6 0.4 0 0.7-0.1 1-0.3C194.3 177.8 194.5 177.4 194.7 177zM194.8 174.5c0-0.7-0.2-1.3-0.6-1.6 -0.4-0.4-0.8-0.6-1.3-0.6 -0.5 0-1 0.2-1.3 0.6 -0.4 0.4-0.5 0.9-0.5 1.6L194.8 174.5 194.8 174.5z" class="f"/>
      <path d="M207.7 179.9h-2.5v-4.8c0-1-0.1-1.7-0.2-2s-0.3-0.5-0.5-0.7c-0.2-0.2-0.5-0.2-0.9-0.2 -0.4 0-0.8 0.1-1.2 0.4s-0.6 0.5-0.7 0.9c-0.1 0.4-0.2 1.1-0.2 2.1v4.2h-2.5v-9.3h2.3v1.4c0.8-1.1 1.8-1.6 3.1-1.6 0.5 0 1 0.1 1.5 0.3 0.5 0.2 0.8 0.4 1 0.8 0.2 0.3 0.4 0.7 0.5 1 0.1 0.4 0.1 0.9 0.1 1.7L207.7 179.9 207.7 179.9z" class="f"/>
      <path d="M215.7 177l2.5 0.4c-0.3 0.9-0.8 1.6-1.5 2.1 -0.7 0.5-1.5 0.7-2.6 0.7 -1.6 0-2.8-0.5-3.6-1.6 -0.6-0.8-0.9-1.9-0.9-3.2 0-1.5 0.4-2.8 1.2-3.6s1.8-1.3 3.1-1.3c1.4 0 2.5 0.5 3.3 1.4 0.8 0.9 1.2 2.3 1.2 4.2h-6.2c0 0.7 0.2 1.3 0.6 1.7 0.4 0.4 0.9 0.6 1.4 0.6 0.4 0 0.7-0.1 1-0.3S215.5 177.4 215.7 177zM215.8 174.5c0-0.7-0.2-1.3-0.6-1.6s-0.8-0.6-1.3-0.6c-0.5 0-1 0.2-1.3 0.6 -0.4 0.4-0.5 0.9-0.5 1.6L215.8 174.5 215.8 174.5z" class="f"/>
      <path d="M222.6 179.9h-2.5v-9.3h2.3v1.3c0.4-0.6 0.7-1 1.1-1.2 0.3-0.2 0.7-0.3 1.1-0.3 0.6 0 1.1 0.2 1.6 0.5l-0.8 2.2c-0.4-0.3-0.8-0.4-1.2-0.4 -0.3 0-0.6 0.1-0.9 0.3 -0.2 0.2-0.4 0.5-0.6 1 -0.1 0.5-0.2 1.5-0.2 3.1L222.6 179.9 222.6 179.9z" class="f"/>
      <path d="M229 173.4l-2.2-0.4c0.3-0.9 0.7-1.6 1.3-2 0.6-0.4 1.5-0.6 2.7-0.6 1.1 0 1.9 0.1 2.5 0.4 0.5 0.3 0.9 0.6 1.1 1 0.2 0.4 0.3 1.1 0.3 2.2l0 2.9c0 0.8 0 1.4 0.1 1.8 0.1 0.4 0.2 0.8 0.4 1.3h-2.4c-0.1-0.2-0.1-0.4-0.2-0.7 0-0.1-0.1-0.2-0.1-0.3 -0.4 0.4-0.9 0.7-1.4 0.9s-1 0.3-1.5 0.3c-1 0-1.7-0.3-2.3-0.8 -0.6-0.5-0.8-1.2-0.8-2 0-0.5 0.1-1 0.4-1.4 0.3-0.4 0.6-0.7 1.1-0.9 0.5-0.2 1.1-0.4 2-0.6 1.2-0.2 2-0.4 2.4-0.6v-0.2c0-0.5-0.1-0.8-0.4-1 -0.2-0.2-0.7-0.3-1.3-0.3 -0.4 0-0.8 0.1-1 0.3C229.4 172.7 229.2 173 229 173.4zM232.4 175.4c-0.3 0.1-0.8 0.2-1.5 0.4s-1.1 0.3-1.3 0.4c-0.3 0.2-0.5 0.5-0.5 0.9 0 0.3 0.1 0.6 0.4 0.9 0.3 0.3 0.6 0.4 1 0.4 0.4 0 0.9-0.1 1.3-0.4 0.3-0.2 0.5-0.5 0.6-0.8 0.1-0.2 0.1-0.6 0.1-1.2V175.4L232.4 175.4z" class="f"/>
      <path d="M241.5 170.6v2h-1.7v3.8c0 0.8 0 1.2 0 1.3 0 0.1 0.1 0.2 0.2 0.3 0.1 0.1 0.3 0.1 0.4 0.1 0.2 0 0.6-0.1 1-0.2l0.2 1.9c-0.6 0.2-1.2 0.4-2 0.4 -0.4 0-0.8-0.1-1.2-0.2s-0.6-0.3-0.8-0.6c-0.2-0.2-0.3-0.6-0.3-1 -0.1-0.3-0.1-0.9-0.1-1.7v-4.1h-1.1v-2h1.1v-1.9l2.5-1.4v3.3h1.7V170.6z" class="f"/>
      <path d="M242.6 175.1c0-0.8 0.2-1.6 0.6-2.4 0.4-0.8 1-1.4 1.7-1.8 0.7-0.4 1.6-0.6 2.5-0.6 1.4 0 2.6 0.5 3.5 1.4s1.4 2.1 1.4 3.5c0 1.4-0.5 2.6-1.4 3.5 -0.9 0.9-2.1 1.4-3.4 1.4 -0.9 0-1.7-0.2-2.4-0.6s-1.4-1-1.8-1.7C242.8 177.1 242.6 176.2 242.6 175.1zM245.1 175.3c0 0.9 0.2 1.6 0.7 2.1 0.4 0.5 1 0.7 1.6 0.7s1.2-0.2 1.6-0.7c0.4-0.5 0.7-1.2 0.7-2.1 0-0.9-0.2-1.6-0.7-2.1 -0.4-0.5-1-0.7-1.6-0.7s-1.2 0.2-1.6 0.7C245.3 173.6 245.1 174.3 245.1 175.3z" class="f"/>
      <path d="M256.6 179.9h-2.5v-9.3h2.3v1.3c0.4-0.6 0.7-1 1.1-1.2 0.3-0.2 0.7-0.3 1.1-0.3 0.6 0 1.1 0.2 1.6 0.5l-0.8 2.2c-0.4-0.3-0.8-0.4-1.2-0.4 -0.3 0-0.6 0.1-0.9 0.3 -0.2 0.2-0.4 0.5-0.6 1s-0.2 1.5-0.2 3.1L256.6 179.9 256.6 179.9z" class="f"/>
    <a href = "https://github.com/pfpsim/pfpgen" class = "flowsvg hvr-grow" >
    <polygon points="128.6 80.8 302.1 80.8 302.1 115.5 128.6 115.5 " class="e"/> </a>
      <path d="M148 93.4h-4.3v11.4h-2.7v-11.4h-4.2v-2.1h11.2V93.4z" class="f"/>
      <path d="M154 104.8c-0.1-0.2-0.2-0.4-0.2-0.6 -0.1-0.2-0.1-0.4-0.1-0.6 -0.3 0.4-0.7 0.8-1.1 1s-1 0.4-1.6 0.4c-1 0-1.8-0.3-2.4-0.8 -0.6-0.5-0.9-1.3-0.9-2.2 0-1 0.4-1.8 1.1-2.3 0.7-0.5 1.9-0.8 3.3-0.8h1.4V98.1c0-0.5-0.1-0.9-0.4-1.1 -0.2-0.3-0.6-0.4-1.1-0.4 -0.5 0-0.8 0.1-1 0.3 -0.2 0.2-0.4 0.5-0.4 0.9h-2.7c0-0.9 0.4-1.6 1.2-2.3 0.8-0.6 1.8-0.9 3.1-0.9 1.2 0 2.2 0.3 2.9 0.9 0.7 0.6 1.1 1.5 1.1 2.6v4.1c0 0.5 0 0.9 0.1 1.3 0.1 0.4 0.2 0.8 0.3 1.2H154zM151.7 103c0.4 0 0.8-0.1 1.1-0.3 0.3-0.2 0.6-0.4 0.8-0.7v-1.7h-1.4c-0.6 0-1 0.1-1.3 0.4 -0.3 0.3-0.4 0.6-0.4 1.1 0 0.3 0.1 0.6 0.3 0.8C151 102.9 151.3 103 151.7 103z" class="f"/>
      <path d="M163.7 97.2l-1.1 0c-0.4 0-0.7 0.1-1 0.2 -0.3 0.2-0.5 0.4-0.6 0.7v6.8h-2.7V94.8h2.5l0.1 1.4 0 0c0.2-0.5 0.5-0.9 0.9-1.2 0.4-0.3 0.8-0.4 1.3-0.4 0.1 0 0.3 0 0.4 0 0.1 0 0.3 0 0.4 0.1L163.7 97.2z" class="f"/>
      <path d="M164.7 99.9c0-1.6 0.3-2.9 1-3.9 0.7-1 1.6-1.4 2.9-1.4 0.6 0 1.1 0.1 1.5 0.4 0.4 0.2 0.8 0.6 1.1 1.1l0.2-1.3h2.4v9.7c0 1.3-0.4 2.4-1.2 3.2 -0.8 0.8-2 1.2-3.5 1.2 -0.5 0-1.1-0.1-1.7-0.2 -0.6-0.1-1.1-0.3-1.6-0.6l0.5-1.8c0.4 0.2 0.8 0.4 1.3 0.5 0.4 0.1 0.9 0.2 1.3 0.2 0.7 0 1.3-0.2 1.6-0.6 0.4-0.4 0.5-1 0.5-1.7v-0.6l0 0c-0.3 0.4-0.6 0.7-1 0.8 -0.4 0.2-0.9 0.3-1.4 0.3 -1.3 0-2.2-0.4-2.9-1.3 -0.7-0.9-1-2.1-1-3.6L164.7 99.9 164.7 99.9zM167.5 100.1c0 0.9 0.1 1.6 0.4 2.1 0.3 0.5 0.8 0.7 1.5 0.7 0.4 0 0.8-0.1 1.1-0.2 0.3-0.1 0.5-0.4 0.7-0.7v-4.4c-0.2-0.3-0.4-0.5-0.7-0.7 -0.3-0.2-0.6-0.2-1-0.2 -0.7 0-1.2 0.3-1.5 0.9 -0.3 0.6-0.4 1.4-0.4 2.3V100.1z" class="f"/>
      <path d="M180.4 105c-1.5 0-2.6-0.5-3.5-1.4 -0.9-0.9-1.3-2.1-1.3-3.6v-0.4c0-1.5 0.4-2.8 1.2-3.7 0.8-0.9 1.9-1.4 3.3-1.4 1.4 0 2.4 0.4 3.2 1.2 0.7 0.8 1.1 1.9 1.1 3.3v1.5h-6.1c0.1 0.7 0.3 1.3 0.7 1.7 0.4 0.4 0.9 0.6 1.6 0.6 0.6 0 1.1-0.1 1.5-0.2 0.4-0.1 0.8-0.3 1.3-0.6l0.6 1.8c-0.4 0.3-0.9 0.6-1.5 0.7S181.2 105 180.4 105zM180.1 96.7c-0.5 0-0.9 0.2-1.2 0.6 -0.3 0.4-0.5 0.9-0.6 1.6h3.4v-0.2c0-0.6-0.1-1-0.4-1.4C181.1 96.9 180.7 96.7 180.1 96.7z" class="f"/>
      <path d="M189.2 92.3v2.5h1.7V96.7h-1.7v5.1c0 0.4 0.1 0.7 0.2 0.8 0.2 0.2 0.4 0.2 0.6 0.2 0.2 0 0.3 0 0.4 0 0.1 0 0.2 0 0.4-0.1l0.2 1.9c-0.2 0.1-0.5 0.2-0.8 0.2 -0.3 0.1-0.6 0.1-0.9 0.1 -0.9 0-1.7-0.3-2.1-0.8 -0.5-0.5-0.7-1.3-0.7-2.5V96.7h-1.4v-1.9h1.4V92.3L189.2 92.3 189.2 92.3z" class="f"/>
      <path d="M197.3 104.8V91.3h4.4c1.9 0 3.4 0.5 4.5 1.6 1.1 1.1 1.6 2.5 1.6 4.3v1.8c0 1.8-0.6 3.2-1.7 4.3 -1.1 1.1-2.6 1.6-4.5 1.6L197.3 104.8 197.3 104.8zM200 93.4v9.3h1.5c1.2 0 2.1-0.3 2.7-1 0.6-0.7 0.9-1.6 0.9-2.8v-1.8c0-1.2-0.3-2.1-0.8-2.8 -0.6-0.7-1.5-1-2.7-1L200 93.4 200 93.4z" class="f"/>
      <path d="M214.2 105c-1.5 0-2.6-0.5-3.5-1.4 -0.9-0.9-1.3-2.1-1.3-3.6v-0.4c0-1.5 0.4-2.8 1.2-3.7 0.8-0.9 1.9-1.4 3.3-1.4 1.4 0 2.4 0.4 3.2 1.2 0.7 0.8 1.1 1.9 1.1 3.3v1.5h-6.1c0.1 0.7 0.3 1.3 0.7 1.7 0.4 0.4 0.9 0.6 1.6 0.6 0.6 0 1.1-0.1 1.5-0.2 0.4-0.1 0.8-0.3 1.3-0.6l0.6 1.8c-0.4 0.3-0.9 0.6-1.5 0.7S215 105 214.2 105zM213.9 96.7c-0.5 0-0.9 0.2-1.2 0.6 -0.3 0.4-0.5 0.9-0.6 1.6h3.4v-0.2c0-0.6-0.1-1-0.4-1.4C214.9 96.9 214.5 96.7 213.9 96.7z" class="f"/>
      <path d="M225.2 102.1c0-0.3-0.1-0.6-0.4-0.8 -0.3-0.2-0.8-0.4-1.6-0.6 -1.2-0.2-2.1-0.6-2.7-1.1 -0.6-0.5-0.9-1.1-0.9-1.9 0-0.9 0.4-1.6 1.1-2.2 0.7-0.6 1.7-0.9 2.9-0.9 1.3 0 2.3 0.3 3.1 0.9 0.8 0.6 1.1 1.4 1.1 2.3h-2.7c0-0.4-0.1-0.7-0.4-1 -0.2-0.2-0.6-0.4-1.1-0.4 -0.4 0-0.8 0.1-1 0.3 -0.2 0.2-0.4 0.5-0.4 0.8 0 0.3 0.1 0.6 0.4 0.8 0.3 0.2 0.8 0.4 1.6 0.5 1.3 0.3 2.2 0.6 2.8 1.1 0.6 0.5 0.9 1.1 0.9 2 0 0.9-0.4 1.7-1.1 2.2 -0.8 0.6-1.8 0.8-3.1 0.8 -1.4 0-2.4-0.3-3.2-1 -0.8-0.7-1.1-1.5-1.1-2.4h2.6c0 0.5 0.2 0.9 0.5 1.2 0.3 0.2 0.8 0.4 1.3 0.4 0.5 0 0.9-0.1 1.2-0.3C225 102.7 225.2 102.4 225.2 102.1z" class="f"/>
      <path d="M233.6 102.9c0.5 0 0.9-0.1 1.2-0.4 0.3-0.3 0.5-0.7 0.5-1.1h2.5c0 1.1-0.4 1.9-1.2 2.6 -0.8 0.7-1.8 1-3 1 -1.5 0-2.7-0.5-3.5-1.4 -0.8-0.9-1.2-2.1-1.2-3.7v-0.3c0-1.5 0.4-2.7 1.2-3.7 0.8-0.9 1.9-1.4 3.5-1.4 1.3 0 2.3 0.4 3 1 0.8 0.7 1.1 1.6 1.1 2.8H235.3c0-0.5-0.1-1-0.4-1.3 -0.3-0.3-0.7-0.5-1.2-0.5 -0.7 0-1.2 0.3-1.5 0.8 -0.3 0.5-0.4 1.3-0.4 2.2v0.3c0 0.9 0.1 1.7 0.4 2.2C232.4 102.7 232.9 102.9 233.6 102.9z" class="f"/>
      <path d="M244.7 97.2l-1.1 0c-0.4 0-0.7 0.1-1 0.2 -0.3 0.2-0.5 0.4-0.6 0.7v6.8h-2.7V94.8h2.5l0.1 1.4 0 0c0.2-0.5 0.5-0.9 0.9-1.2 0.4-0.3 0.8-0.4 1.3-0.4 0.1 0 0.3 0 0.4 0 0.1 0 0.3 0 0.4 0.1L244.7 97.2z" class="f"/>
      <path d="M249 92.4h-2.7v-2H249V92.4zM249 104.8h-2.7V94.8H249V104.8z" class="f"/>
      <path d="M260.3 100.1c0 1.5-0.3 2.7-1 3.6 -0.7 0.9-1.6 1.3-2.9 1.3 -0.5 0-1-0.1-1.4-0.3 -0.4-0.2-0.7-0.5-1-0.8l0 0v4.8h-2.7V94.8h2.5l0.1 1.2c0.3-0.4 0.7-0.8 1.1-1 0.4-0.2 0.9-0.3 1.4-0.3 1.3 0 2.2 0.5 2.9 1.4 0.7 1 1 2.2 1 3.9v0.2H260.3zM257.6 99.9c0-1-0.2-1.7-0.5-2.3 -0.3-0.6-0.8-0.9-1.5-0.9 -0.4 0-0.8 0.1-1 0.2 -0.3 0.2-0.5 0.4-0.7 0.7v4.4c0.2 0.3 0.4 0.5 0.7 0.7 0.3 0.1 0.6 0.2 1.1 0.2 0.7 0 1.2-0.3 1.5-0.8 0.3-0.5 0.5-1.2 0.5-2.1V99.9L257.6 99.9z" class="f"/>
      <path d="M265.3 92.3v2.5h1.7V96.7h-1.7v5.1c0 0.4 0.1 0.7 0.2 0.8 0.2 0.2 0.4 0.2 0.6 0.2 0.2 0 0.3 0 0.4 0 0.1 0 0.2 0 0.4-0.1l0.2 1.9c-0.2 0.1-0.5 0.2-0.8 0.2 -0.3 0.1-0.6 0.1-0.9 0.1 -0.9 0-1.7-0.3-2.1-0.8 -0.5-0.5-0.7-1.3-0.7-2.5V96.7h-1.4v-1.9h1.4V92.3L265.3 92.3 265.3 92.3z" class="f"/>
      <path d="M271.3 92.4h-2.7v-2h2.7V92.4zM271.3 104.8h-2.7V94.8h2.7V104.8z" class="f"/>
      <path d="M273.1 99.7c0-1.5 0.4-2.8 1.2-3.7 0.8-0.9 2-1.4 3.5-1.4 1.5 0 2.7 0.5 3.5 1.4 0.8 0.9 1.2 2.2 1.2 3.7v0.2c0 1.5-0.4 2.8-1.2 3.7 -0.8 0.9-2 1.4-3.5 1.4 -1.5 0-2.7-0.5-3.5-1.4 -0.8-0.9-1.2-2.2-1.2-3.7L273.1 99.7 273.1 99.7zM275.8 99.9c0 0.9 0.2 1.7 0.5 2.2 0.3 0.5 0.8 0.8 1.6 0.8 0.7 0 1.2-0.3 1.5-0.8 0.3-0.5 0.5-1.3 0.5-2.2v-0.2c0-0.9-0.2-1.6-0.5-2.2 -0.3-0.6-0.8-0.8-1.6-0.8 -0.7 0-1.2 0.3-1.5 0.8 -0.3 0.6-0.5 1.3-0.5 2.2V99.9z" class="f"/>
      <path d="M286.8 94.8l0.1 1.4 0 0c0.3-0.5 0.7-0.9 1.2-1.2s1-0.4 1.6-0.4c1 0 1.8 0.3 2.4 0.9 0.6 0.6 0.8 1.6 0.8 3v6.3h-2.7v-6.3c0-0.7-0.1-1.2-0.4-1.4 -0.3-0.3-0.7-0.4-1.2-0.4 -0.4 0-0.7 0.1-1 0.2 -0.3 0.1-0.5 0.4-0.7 0.6v7.3h-2.7V94.8H286.8z" class="f"/>
    <a href = "https://github.com/pfpsim/pfpgen" class = "flowsvg hvr-grow" >
    <polygon points="132.7 212 298.4 212 298.4 246 132.7 246 " class="i"/> </a>
      <path d="M177.5 226.3v2h-1.7v3.8c0 0.8 0 1.2 0 1.3 0 0.1 0.1 0.2 0.2 0.3 0.1 0.1 0.3 0.1 0.4 0.1 0.2 0 0.6-0.1 1-0.2l0.2 1.9c-0.6 0.2-1.2 0.4-2 0.4 -0.4 0-0.8-0.1-1.2-0.2 -0.4-0.1-0.6-0.3-0.8-0.6 -0.2-0.2-0.3-0.6-0.3-1 -0.1-0.3-0.1-0.9-0.1-1.7v-4.1h-1.1V226.3h1.1v-1.9l2.5-1.4v3.3h1.7V226.3z" class="d"/>
      <path d="M181.1 229.1l-2.2-0.4c0.3-0.9 0.7-1.6 1.3-2 0.6-0.4 1.5-0.6 2.7-0.6 1.1 0 1.9 0.1 2.5 0.4 0.5 0.3 0.9 0.6 1.1 1 0.2 0.4 0.3 1.1 0.3 2.2l0 2.9c0 0.8 0 1.4 0.1 1.8 0.1 0.4 0.2 0.8 0.4 1.3h-2.4c-0.1-0.2-0.1-0.4-0.2-0.7 0-0.1-0.1-0.2-0.1-0.3 -0.4 0.4-0.9 0.7-1.4 0.9s-1 0.3-1.5 0.3c-1 0-1.7-0.3-2.3-0.8 -0.6-0.5-0.8-1.2-0.8-2 0-0.5 0.1-1 0.4-1.4 0.3-0.4 0.6-0.7 1.1-0.9 0.5-0.2 1.1-0.4 2-0.6 1.2-0.2 2-0.4 2.4-0.6v-0.2c0-0.5-0.1-0.8-0.4-1 -0.2-0.2-0.7-0.3-1.3-0.3 -0.4 0-0.8 0.1-1 0.3C181.4 228.4 181.2 228.7 181.1 229.1zM184.4 231.1c-0.3 0.1-0.8 0.2-1.5 0.4 -0.7 0.1-1.1 0.3-1.3 0.4 -0.3 0.2-0.5 0.5-0.5 0.9 0 0.3 0.1 0.6 0.4 0.9 0.3 0.3 0.6 0.4 1 0.4 0.4 0 0.9-0.1 1.3-0.4 0.3-0.2 0.5-0.5 0.6-0.8 0.1-0.2 0.1-0.6 0.1-1.2V231.1L184.4 231.1z" class="d"/>
      <path d="M191.6 235.6h-2.5v-9.3h2.3v1.3c0.4-0.6 0.7-1 1.1-1.2 0.3-0.2 0.7-0.3 1.1-0.3 0.6 0 1.1 0.2 1.6 0.5l-0.8 2.2c-0.4-0.3-0.8-0.4-1.2-0.4 -0.3 0-0.6 0.1-0.9 0.3 -0.2 0.2-0.4 0.5-0.6 1 -0.1 0.5-0.2 1.5-0.2 3.1L191.6 235.6 191.6 235.6z" class="d"/>
      <path d="M196 236.2l2.8 0.3c0 0.3 0.2 0.6 0.3 0.7 0.2 0.2 0.6 0.3 1.1 0.3 0.6 0 1.1-0.1 1.5-0.3 0.2-0.1 0.4-0.3 0.5-0.6 0.1-0.2 0.1-0.6 0.1-1.1v-1.4c-0.7 1-1.7 1.5-2.8 1.5 -1.3 0-2.2-0.5-3-1.6 -0.6-0.8-0.9-1.9-0.9-3.1 0-1.6 0.4-2.8 1.1-3.6 0.8-0.8 1.7-1.2 2.8-1.2 1.2 0 2.1 0.5 2.9 1.5V226.3h2.3v8.4c0 1.1-0.1 1.9-0.3 2.5 -0.2 0.5-0.4 1-0.8 1.3 -0.3 0.3-0.8 0.6-1.3 0.7 -0.5 0.2-1.2 0.3-2.1 0.3 -1.6 0-2.7-0.3-3.4-0.8 -0.7-0.5-1-1.2-1-2.1C195.9 236.5 196 236.4 196 236.2zM198.2 230.8c0 1 0.2 1.7 0.6 2.2 0.4 0.5 0.9 0.7 1.4 0.7 0.6 0 1.1-0.2 1.5-0.7 0.4-0.5 0.6-1.2 0.6-2.1 0-1-0.2-1.7-0.6-2.2 -0.4-0.5-0.9-0.7-1.5-0.7 -0.6 0-1.1 0.2-1.5 0.7C198.4 229.1 198.2 229.8 198.2 230.8z" class="d"/>
      <path d="M212.6 232.7l2.5 0.4c-0.3 0.9-0.8 1.6-1.5 2.1 -0.7 0.5-1.5 0.7-2.6 0.7 -1.6 0-2.8-0.5-3.6-1.6 -0.6-0.8-0.9-1.9-0.9-3.2 0-1.5 0.4-2.8 1.2-3.6 0.8-0.9 1.8-1.3 3.1-1.3 1.4 0 2.5 0.5 3.3 1.4 0.8 0.9 1.2 2.3 1.2 4.2h-6.2c0 0.7 0.2 1.3 0.6 1.7 0.4 0.4 0.9 0.6 1.4 0.6 0.4 0 0.7-0.1 1-0.3S212.5 233.1 212.6 232.7zM212.8 230.2c0-0.7-0.2-1.3-0.6-1.6 -0.4-0.4-0.8-0.6-1.3-0.6 -0.5 0-1 0.2-1.3 0.6 -0.4 0.4-0.5 0.9-0.5 1.6H212.8z" class="d"/>
      <path d="M221.5 226.3v2h-1.7v3.8c0 0.8 0 1.2 0 1.3 0 0.1 0.1 0.2 0.2 0.3 0.1 0.1 0.3 0.1 0.4 0.1 0.2 0 0.6-0.1 1-0.2l0.2 1.9c-0.6 0.2-1.2 0.4-2 0.4 -0.4 0-0.8-0.1-1.2-0.2 -0.4-0.1-0.6-0.3-0.8-0.6 -0.2-0.2-0.3-0.6-0.3-1 -0.1-0.3-0.1-0.9-0.1-1.7v-4.1h-1.1V226.3h1.1v-1.9l2.5-1.4v3.3h1.7V226.3z" class="d"/>
      <path d="M223.2 235.6v-2.5h2.5v2.5H223.2z" class="d"/>
      <path d="M236.4 229.1l-2.4 0.4c-0.1-0.5-0.3-0.9-0.6-1.1s-0.7-0.4-1.1-0.4c-0.6 0-1.1 0.2-1.5 0.6 -0.4 0.4-0.5 1.1-0.5 2.1 0 1.1 0.2 1.9 0.6 2.3s0.9 0.7 1.5 0.7c0.5 0 0.9-0.1 1.2-0.4 0.3-0.3 0.5-0.7 0.6-1.4l2.4 0.4c-0.3 1.1-0.7 2-1.4 2.5 -0.7 0.6-1.7 0.9-2.9 0.9 -1.4 0-2.5-0.4-3.3-1.3 -0.8-0.9-1.2-2.1-1.2-3.6 0-1.5 0.4-2.7 1.2-3.6 0.8-0.9 1.9-1.3 3.3-1.3 1.1 0 2 0.2 2.7 0.7C235.6 227.3 236.1 228.1 236.4 229.1z" class="d"/>
      <path d="M238.1 226.3h2.3v1.4c0.3-0.5 0.7-0.9 1.2-1.1 0.5-0.3 1.1-0.4 1.7-0.4 1.1 0 2 0.4 2.8 1.3 0.8 0.8 1.1 2 1.1 3.6 0 1.6-0.4 2.8-1.1 3.6 -0.8 0.9-1.7 1.3-2.8 1.3 -0.5 0-1-0.1-1.4-0.3s-0.9-0.6-1.3-1.1v4.7h-2.5L238.1 226.3 238.1 226.3zM240.6 230.8c0 1 0.2 1.8 0.6 2.3 0.4 0.5 0.9 0.8 1.5 0.8 0.6 0 1.1-0.2 1.4-0.7 0.4-0.5 0.6-1.2 0.6-2.3 0-1-0.2-1.7-0.6-2.2s-0.9-0.7-1.5-0.7c-0.6 0-1.1 0.2-1.5 0.7C240.8 229.2 240.6 229.9 240.6 230.8z" class="d"/>
      <path d="M249.2 226.3h2.3v1.4c0.3-0.5 0.7-0.9 1.2-1.1 0.5-0.3 1.1-0.4 1.7-0.4 1.1 0 2 0.4 2.8 1.3 0.8 0.8 1.1 2 1.1 3.6 0 1.6-0.4 2.8-1.1 3.6 -0.8 0.9-1.7 1.3-2.8 1.3 -0.5 0-1-0.1-1.4-0.3s-0.9-0.6-1.3-1.1v4.7h-2.5L249.2 226.3 249.2 226.3zM251.6 230.8c0 1 0.2 1.8 0.6 2.3 0.4 0.5 0.9 0.8 1.5 0.8 0.6 0 1.1-0.2 1.4-0.7 0.4-0.5 0.6-1.2 0.6-2.3 0-1-0.2-1.7-0.6-2.2s-0.9-0.7-1.5-0.7c-0.6 0-1.1 0.2-1.5 0.7C251.8 229.2 251.6 229.9 251.6 230.8z" class="d"/>
    <line x1="215.6" y1="185.7" x2="215.6" y2="206.3" class="h"/>
    <polygon points="219 205.1 215.6 212 212.2 205.1 " class="d"/>
    <line x1="215.4" y1="115.5" x2="215.5" y2="133.5" class="h"/>
    <polygon points="218.9 132.3 215.6 139.2 212.1 132.4 " class="d"/>
    <a href = "https://github.com/pfpsim/PFPSim" class = "flowsvg hvr-grow">
    <path d="M15.8 144.8c0-4.9 19.9-8.8 44.4-8.8s44.4 4 44.4 8.8v35.4c0 4.9-19.9 8.8-44.4 8.8s-44.4-4-44.4-8.8V144.8z" class="l"/> </a>
    <path d="M104.6 144.8c0 4.9-19.9 8.8-44.4 8.8s-44.4-4-44.4-8.8" class="h"/>
    <a href = "https://github.com/pfpsim/PFPSim" class = "flowsvg hvr-grow">
    <path d="M15.8 144.8c0-4.9 19.9-8.8 44.4-8.8s44.4 4 44.4 8.8v35.4c0 4.9-19.9 8.8-44.4 8.8s-44.4-4-44.4-8.8V144.8z" class="h"/> </a>
      <path d="M24.8 174.7v-12.9h3.9l2.3 8.8 2.3-8.8h3.9v12.9H34.8v-10.1l-2.6 10.1h-2.5l-2.5-10.1v10.1H24.8z" class="d"/>
      <path d="M39.2 169.9c0-0.8 0.2-1.6 0.6-2.4 0.4-0.8 1-1.4 1.7-1.8 0.7-0.4 1.6-0.6 2.5-0.6 1.4 0 2.6 0.5 3.5 1.4s1.4 2.1 1.4 3.5c0 1.4-0.5 2.6-1.4 3.5 -0.9 0.9-2.1 1.4-3.4 1.4 -0.9 0-1.7-0.2-2.4-0.6 -0.8-0.4-1.4-1-1.8-1.7C39.4 171.9 39.2 171 39.2 169.9zM41.8 170c0 0.9 0.2 1.6 0.7 2.1 0.4 0.5 1 0.7 1.6 0.7s1.2-0.2 1.6-0.7c0.4-0.5 0.7-1.2 0.7-2.1 0-0.9-0.2-1.6-0.7-2.1 -0.4-0.5-1-0.7-1.6-0.7s-1.2 0.2-1.6 0.7C42 168.4 41.8 169.1 41.8 170z" class="d"/>
      <path d="M59.4 174.7h-2.3v-1.4c-0.4 0.5-0.8 0.9-1.3 1.2 -0.5 0.3-1 0.4-1.6 0.4 -1.1 0-2-0.4-2.8-1.3 -0.8-0.9-1.1-2.1-1.1-3.6 0-1.6 0.4-2.8 1.1-3.6 0.7-0.8 1.7-1.2 2.8-1.2 1 0 1.9 0.4 2.7 1.3v-4.6h2.5V174.7zM52.8 169.8c0 1 0.1 1.7 0.4 2.2 0.4 0.6 1 1 1.7 1 0.6 0 1.1-0.2 1.5-0.7 0.4-0.5 0.6-1.2 0.6-2.2 0-1.1-0.2-1.8-0.6-2.3 -0.4-0.5-0.9-0.7-1.5-0.7 -0.6 0-1.1 0.2-1.5 0.7C53 168.2 52.8 168.9 52.8 169.8z" class="d"/>
      <path d="M68 174.7v-1.4c-0.3 0.5-0.8 0.9-1.3 1.2 -0.6 0.3-1.1 0.4-1.8 0.4 -0.6 0-1.2-0.1-1.7-0.4s-0.9-0.7-1.1-1.2c-0.2-0.5-0.3-1.2-0.3-2.1v-5.9h2.5v4.3c0 1.3 0 2.1 0.1 2.4 0.1 0.3 0.3 0.5 0.5 0.7 0.2 0.2 0.5 0.3 0.9 0.3 0.4 0 0.8-0.1 1.1-0.3s0.6-0.5 0.7-0.9c0.1-0.3 0.2-1.2 0.2-2.5v-3.9h2.5v9.3h-2.3V174.7z" class="d"/>
      <path d="M72.9 174.7v-12.9h2.5v12.9H72.9z" class="d"/>
      <path d="M83.3 171.7l2.5 0.4c-0.3 0.9-0.8 1.6-1.5 2.1 -0.7 0.5-1.5 0.7-2.6 0.7 -1.6 0-2.8-0.5-3.6-1.6 -0.6-0.8-0.9-1.9-0.9-3.2 0-1.5 0.4-2.8 1.2-3.6s1.8-1.3 3.1-1.3c1.4 0 2.5 0.5 3.3 1.4 0.8 0.9 1.2 2.3 1.2 4.2h-6.2c0 0.7 0.2 1.3 0.6 1.7 0.4 0.4 0.9 0.6 1.4 0.6 0.4 0 0.7-0.1 1-0.3S83.2 172.2 83.3 171.7zM83.5 169.2c0-0.7-0.2-1.3-0.6-1.6s-0.8-0.6-1.3-0.6c-0.5 0-1 0.2-1.3 0.6 -0.4 0.4-0.5 0.9-0.5 1.6L83.5 169.2 83.5 169.2z" class="d"/>
      <path d="M87 172l2.5-0.4c0.1 0.5 0.3 0.8 0.6 1.1 0.3 0.2 0.8 0.4 1.4 0.4 0.6 0 1.1-0.1 1.4-0.4 0.2-0.2 0.3-0.4 0.3-0.7 0-0.2-0.1-0.3-0.2-0.5 -0.1-0.1-0.4-0.2-0.8-0.3 -2-0.4-3.3-0.8-3.8-1.2 -0.7-0.5-1.1-1.2-1.1-2.1 0-0.8 0.3-1.5 1-2 0.6-0.6 1.6-0.8 3-0.8 1.3 0 2.2 0.2 2.8 0.6s1 1 1.3 1.8l-2.3 0.4c-0.1-0.4-0.3-0.6-0.6-0.8 -0.3-0.2-0.7-0.3-1.2-0.3 -0.6 0-1.1 0.1-1.4 0.3 -0.2 0.1-0.3 0.3-0.3 0.5 0 0.2 0.1 0.3 0.2 0.4 0.2 0.2 1 0.4 2.3 0.7 1.3 0.3 2.2 0.7 2.8 1.1 0.5 0.4 0.8 1.1 0.8 1.8 0 0.9-0.4 1.6-1.1 2.2 -0.7 0.6-1.8 0.9-3.2 0.9 -1.3 0-2.3-0.3-3-0.8C87.8 173.6 87.3 172.9 87 172z" class="d"/>
    <line x1="104.6" y1="162.4" x2="127" y2="162.4" class="h"/>
    <polygon points="125.8 159 132.7 162.4 125.8 165.9 " class="d"/>
    <polygon points="404.4 369.3 466.9 369.3 466.9 415.9 404.4 415.9 " class="e"/>
      <path d="M420.3 388.5v-12.9h4.2c1.6 0 2.6 0.1 3.1 0.2 0.7 0.2 1.4 0.6 1.9 1.3 0.5 0.6 0.7 1.5 0.7 2.5 0 0.8-0.1 1.5-0.4 2s-0.7 1-1.1 1.3c-0.4 0.3-0.9 0.5-1.3 0.6 -0.6 0.1-1.5 0.2-2.7 0.2h-1.7v4.9H420.3L420.3 388.5zM422.9 377.7v3.7h1.4c1 0 1.7-0.1 2.1-0.2s0.6-0.3 0.8-0.6c0.2-0.3 0.3-0.6 0.3-1 0-0.5-0.1-0.9-0.4-1.2 -0.3-0.3-0.6-0.5-1-0.6 -0.3-0.1-0.9-0.1-1.9-0.1H422.9L422.9 377.7z" class="f"/>
      <path d="M432.2 388.5v-12.9h2.5v6.8l2.9-3.3h3l-3.2 3.4 3.4 5.9h-2.7l-2.3-4.2 -1.1 1.2v3H432.2L432.2 388.5z" class="f"/>
      <path d="M446.6 379.1v2h-1.7v3.8c0 0.8 0 1.2 0 1.3 0 0.1 0.1 0.2 0.2 0.3 0.1 0.1 0.3 0.1 0.4 0.1 0.2 0 0.6-0.1 1-0.2l0.2 1.9c-0.6 0.2-1.2 0.4-2 0.4 -0.4 0-0.8-0.1-1.2-0.2 -0.4-0.1-0.6-0.3-0.8-0.6 -0.2-0.2-0.3-0.6-0.3-1 -0.1-0.3-0.1-0.9-0.1-1.7v-4.1h-1.1v-2h1.1v-1.9l2.5-1.4v3.3h1.7V379.1z" class="f"/>
      <path d="M448.3 388.5v-2.5h2.5v2.5H448.3z" class="f"/>
      <path d="M422.8 405.3v-2.2h5.6v5.1c-0.5 0.5-1.3 1-2.4 1.4 -1 0.4-2.1 0.6-3.1 0.6 -1.3 0-2.5-0.3-3.5-0.8 -1-0.6-1.8-1.4-2.3-2.4 -0.5-1.1-0.8-2.2-0.8-3.4 0-1.3 0.3-2.5 0.8-3.6 0.6-1 1.4-1.8 2.5-2.4 0.8-0.4 1.9-0.6 3.1-0.6 1.6 0 2.8 0.3 3.7 1 0.9 0.7 1.5 1.6 1.7 2.8l-2.6 0.5c-0.2-0.6-0.5-1.1-1-1.5 -0.5-0.4-1.1-0.5-1.9-0.5 -1.1 0-2 0.4-2.7 1.1 -0.7 0.7-1 1.8-1 3.2 0 1.5 0.3 2.7 1 3.4 0.7 0.8 1.6 1.1 2.7 1.1 0.5 0 1.1-0.1 1.6-0.3 0.5-0.2 1-0.5 1.4-0.8v-1.6L422.8 405.3 422.8 405.3z" class="f"/>
      <path d="M436.3 407.1l2.5 0.4c-0.3 0.9-0.8 1.6-1.5 2.1 -0.7 0.5-1.5 0.7-2.6 0.7 -1.6 0-2.8-0.5-3.6-1.6 -0.6-0.8-0.9-1.9-0.9-3.2 0-1.5 0.4-2.8 1.2-3.6 0.8-0.9 1.8-1.3 3.1-1.3 1.4 0 2.5 0.5 3.3 1.4 0.8 0.9 1.2 2.3 1.2 4.2h-6.2c0 0.7 0.2 1.3 0.6 1.7 0.4 0.4 0.9 0.6 1.4 0.6 0.4 0 0.7-0.1 1-0.3C435.9 407.9 436.1 407.6 436.3 407.1zM436.4 404.6c0-0.7-0.2-1.3-0.6-1.6 -0.4-0.4-0.8-0.6-1.3-0.6 -0.5 0-1 0.2-1.3 0.6 -0.4 0.4-0.5 0.9-0.5 1.6H436.4L436.4 404.6z" class="f"/>
      <path d="M449.3 410.1h-2.5v-4.8c0-1-0.1-1.7-0.2-2 -0.1-0.3-0.3-0.5-0.5-0.7 -0.2-0.2-0.5-0.2-0.9-0.2 -0.4 0-0.8 0.1-1.2 0.4s-0.6 0.5-0.7 0.9c-0.1 0.4-0.2 1.1-0.2 2.1v4.2h-2.5v-9.3h2.3v1.4c0.8-1.1 1.8-1.6 3.1-1.6 0.5 0 1 0.1 1.5 0.3 0.5 0.2 0.8 0.4 1 0.8 0.2 0.3 0.4 0.7 0.5 1 0.1 0.4 0.1 0.9 0.1 1.7V410.1L449.3 410.1z" class="f"/>
      <path d="M451.9 410.1v-2.5h2.5v2.5H451.9z" class="f"/>
    <line x1="435.7" y1="369.4" x2="435.7" y2="353.8" class="j"/>
    <polygon points="439.1 354.9 435.7 348.1 432.3 354.9 " class="d"/>
    <line x1="364.8" y1="370.4" x2="364.8" y2="354.9" class="j"/>
    <polygon points="368.2 356 364.8 349.2 361.3 356 " class="d"/>
    <polygon points="331.9 369.3 394.4 369.3 394.4 415.9 331.9 415.9 " class="e"/>
      <path d="M354.7 383.7l2.5 0.8c-0.4 1.4-1 2.5-1.9 3.1 -0.9 0.7-2 1-3.4 1 -1.7 0-3.1-0.6-4.2-1.8 -1.1-1.2-1.7-2.8-1.7-4.8 0-2.1 0.6-3.8 1.7-5 1.1-1.2 2.6-1.8 4.4-1.8 1.6 0 2.9 0.5 3.8 1.4 0.6 0.6 1 1.3 1.3 2.4l-2.6 0.6c-0.2-0.7-0.5-1.2-1-1.6 -0.5-0.4-1.1-0.6-1.8-0.6 -1 0-1.7 0.3-2.3 1 -0.6 0.7-0.9 1.8-0.9 3.3 0 1.6 0.3 2.8 0.9 3.5 0.6 0.7 1.3 1 2.3 1 0.7 0 1.3-0.2 1.8-0.7C354.1 385.4 354.5 384.7 354.7 383.7z" class="f"/>
      <path d="M363.7 379.1v2h-1.7v3.8c0 0.8 0 1.2 0.1 1.3 0 0.1 0.1 0.2 0.2 0.3 0.1 0.1 0.3 0.1 0.4 0.1 0.2 0 0.6-0.1 1-0.2l0.2 1.9c-0.6 0.2-1.2 0.4-1.9 0.4 -0.4 0-0.8-0.1-1.2-0.2 -0.4-0.1-0.6-0.3-0.8-0.6 -0.2-0.2-0.3-0.6-0.3-1 -0.1-0.3-0.1-0.9-0.1-1.7v-4.1h-1.1v-2h1.1v-1.9l2.5-1.4v3.3h1.7V379.1z" class="f"/>
      <path d="M367.7 388.5h-2.5v-9.3h2.3v1.3c0.4-0.6 0.7-1 1.1-1.2s0.7-0.3 1.1-0.3c0.6 0 1.1 0.2 1.6 0.5l-0.8 2.2c-0.4-0.3-0.8-0.4-1.2-0.4 -0.3 0-0.6 0.1-0.9 0.3 -0.2 0.2-0.4 0.5-0.6 1 -0.1 0.5-0.2 1.5-0.2 3.1V388.5L367.7 388.5z" class="f"/>
      <path d="M372.3 388.5v-12.9h2.5v12.9H372.3z" class="f"/>
      <path d="M377.4 388.5v-2.5h2.5v2.5H377.4z" class="f"/>
      <path d="M340.4 410.1V397.2h4.2c1.6 0 2.6 0.1 3.1 0.2 0.7 0.2 1.4 0.6 1.9 1.3s0.7 1.5 0.7 2.5c0 0.8-0.1 1.5-0.4 2s-0.7 1-1.1 1.3c-0.4 0.3-0.9 0.5-1.3 0.6 -0.6 0.1-1.5 0.2-2.7 0.2h-1.7v4.9H340.4L340.4 410.1zM343 399.4v3.7h1.4c1 0 1.7-0.1 2.1-0.2 0.3-0.1 0.6-0.3 0.8-0.6 0.2-0.3 0.3-0.6 0.3-1 0-0.5-0.1-0.9-0.4-1.2 -0.3-0.3-0.6-0.5-1-0.6 -0.3-0.1-0.9-0.1-1.9-0.1H343L343 399.4z" class="f"/>
      <path d="M352.4 410.1V397.2h2.5v12.9H352.4L352.4 410.1z" class="f"/>
      <path d="M359.3 403.6l-2.2-0.4c0.3-0.9 0.7-1.6 1.3-2 0.6-0.4 1.5-0.6 2.7-0.6 1.1 0 1.9 0.1 2.5 0.4 0.5 0.3 0.9 0.6 1.1 1 0.2 0.4 0.3 1.1 0.3 2.2l0 2.9c0 0.8 0 1.4 0.1 1.8 0.1 0.4 0.2 0.8 0.4 1.3h-2.4c-0.1-0.2-0.1-0.4-0.2-0.7 0-0.1-0.1-0.2-0.1-0.3 -0.4 0.4-0.9 0.7-1.4 0.9s-1 0.3-1.5 0.3c-1 0-1.7-0.3-2.3-0.8 -0.6-0.5-0.8-1.2-0.8-2 0-0.5 0.1-1 0.4-1.4 0.3-0.4 0.6-0.7 1.1-0.9 0.5-0.2 1.1-0.4 2-0.6 1.2-0.2 2-0.4 2.4-0.6v-0.2c0-0.5-0.1-0.8-0.4-1 -0.2-0.2-0.7-0.3-1.3-0.3 -0.4 0-0.8 0.1-1 0.3C359.7 402.8 359.5 403.1 359.3 403.6zM362.6 405.6c-0.3 0.1-0.8 0.2-1.5 0.4 -0.7 0.1-1.1 0.3-1.3 0.4 -0.3 0.2-0.5 0.5-0.5 0.9 0 0.3 0.1 0.6 0.4 0.9 0.3 0.3 0.6 0.4 1 0.4 0.4 0 0.9-0.1 1.3-0.4 0.3-0.2 0.5-0.5 0.6-0.8 0.1-0.2 0.1-0.6 0.1-1.2L362.6 405.6 362.6 405.6z" class="f"/>
      <path d="M375.9 410.1h-2.5v-4.8c0-1-0.1-1.7-0.2-2s-0.3-0.5-0.5-0.7c-0.2-0.2-0.5-0.2-0.9-0.2 -0.4 0-0.8 0.1-1.2 0.4 -0.3 0.2-0.6 0.5-0.7 0.9 -0.1 0.4-0.2 1.1-0.2 2.1v4.2h-2.5v-9.3h2.3v1.4c0.8-1.1 1.8-1.6 3.1-1.6 0.5 0 1 0.1 1.5 0.3 0.5 0.2 0.8 0.4 1 0.8 0.2 0.3 0.4 0.7 0.5 1 0.1 0.4 0.1 0.9 0.1 1.7V410.1z" class="f"/>
      <path d="M383.9 407.1l2.5 0.4c-0.3 0.9-0.8 1.6-1.5 2.1 -0.7 0.5-1.5 0.7-2.6 0.7 -1.6 0-2.8-0.5-3.6-1.6 -0.6-0.8-0.9-1.9-0.9-3.2 0-1.5 0.4-2.8 1.2-3.6s1.8-1.3 3.1-1.3c1.4 0 2.5 0.5 3.3 1.4 0.8 0.9 1.2 2.3 1.2 4.2h-6.2c0 0.7 0.2 1.3 0.6 1.7 0.4 0.4 0.9 0.6 1.4 0.6 0.4 0 0.7-0.1 1-0.3C383.5 407.9 383.7 407.6 383.9 407.1zM384 404.6c0-0.7-0.2-1.3-0.6-1.6 -0.4-0.4-0.8-0.6-1.3-0.6 -0.5 0-1 0.2-1.3 0.6 -0.4 0.4-0.5 0.9-0.5 1.6H384L384 404.6z" class="f"/>
      <path d="M511.3 339.7L514 326.8h3.5c1 0 1.6 0 1.9 0 0.5 0.1 1 0.2 1.4 0.3 0.4 0.2 0.8 0.4 1.1 0.7 0.3 0.3 0.6 0.7 0.9 1.1 0.2 0.4 0.4 0.9 0.6 1.4 0.1 0.5 0.2 1.1 0.2 1.8 0 1.4-0.3 2.6-0.8 3.7 -0.5 1.1-1.2 1.9-2 2.6 -0.6 0.5-1.4 0.9-2.4 1.1 -0.6 0.1-1.4 0.2-2.5 0.2L511.3 339.7 511.3 339.7zM514.4 337.6h1.3c1 0 1.7-0.1 2.1-0.2 0.4-0.1 0.8-0.3 1.2-0.7 0.5-0.5 1-1.1 1.3-1.9 0.4-0.8 0.5-1.7 0.5-2.8 0-0.9-0.1-1.6-0.4-2.1 -0.3-0.5-0.7-0.8-1.1-0.9 -0.3-0.1-0.8-0.2-1.6-0.2h-1.5L514.4 337.6z" class="d"/>
      <path d="M533.3 335.8h-6.3c0 0.1 0 0.2 0 0.2 0 0.6 0.2 1.1 0.5 1.5 0.4 0.4 0.8 0.6 1.3 0.6 0.8 0 1.5-0.4 2-1.3l2.3 0.4c-0.4 0.9-1 1.6-1.8 2 -0.7 0.5-1.6 0.7-2.5 0.7 -1.3 0-2.3-0.4-3.1-1.2s-1.2-1.8-1.2-3.1c0-1.3 0.4-2.4 1.1-3.4 1-1.3 2.3-2 4.1-2 1.1 0 2.1 0.4 2.7 1.1s1 1.7 1 3C533.5 334.8 533.4 335.3 533.3 335.8zM531.2 334.3c0-0.1 0-0.2 0-0.3 0-0.7-0.2-1.2-0.5-1.6 -0.3-0.3-0.7-0.5-1.2-0.5s-1 0.2-1.4 0.6c-0.4 0.4-0.7 1-0.8 1.7L531.2 334.3 531.2 334.3z" class="d"/>
      <path d="M534.1 339.7l2.7-12.9h2.5l-0.9 4.3c0.5-0.4 0.9-0.6 1.3-0.8 0.4-0.1 0.8-0.2 1.3-0.2 1 0 1.8 0.3 2.4 1 0.6 0.7 0.9 1.6 0.9 2.9 0 0.9-0.1 1.7-0.4 2.5 -0.3 0.8-0.6 1.5-1.1 2 -0.5 0.5-1 0.9-1.5 1.1 -0.5 0.2-1.1 0.4-1.6 0.4 -1.3 0-2.3-0.6-2.9-1.8l-0.3 1.5L534.1 339.7 534.1 339.7zM537.5 335.9c0 0.6 0.2 1.1 0.5 1.5 0.4 0.4 0.8 0.6 1.3 0.6 0.4 0 0.8-0.2 1.2-0.5 0.4-0.3 0.7-0.8 1-1.5 0.3-0.7 0.4-1.3 0.4-2 0-0.7-0.2-1.2-0.5-1.6 -0.3-0.4-0.8-0.6-1.2-0.6 -0.6 0-1.2 0.3-1.6 0.9C537.8 333.6 537.5 334.6 537.5 335.9z" class="d"/>
      <path d="M547.1 330.4h2.5l-1.1 5.5c-0.1 0.7-0.2 1.1-0.2 1.2 0 0.3 0.1 0.5 0.3 0.7 0.2 0.2 0.5 0.3 0.8 0.3 0.2 0 0.4 0 0.7-0.1 0.2-0.1 0.4-0.2 0.7-0.4 0.2-0.2 0.4-0.4 0.6-0.6 0.2-0.2 0.4-0.5 0.5-0.9 0.1-0.3 0.2-0.7 0.4-1.3l0.9-4.4h2.5l-2 9.3h-2.4l0.3-1.3c-1 1-2.2 1.5-3.4 1.5 -0.8 0-1.4-0.2-1.8-0.7s-0.7-1-0.7-1.8c0-0.3 0.1-1 0.3-1.9L547.1 330.4z" class="d"/>
      <path d="M556.1 340.2l2.7 0.4c0 0.3 0 0.5 0.1 0.6s0.2 0.3 0.4 0.4c0.2 0.1 0.5 0.1 0.8 0.1 0.5 0 1-0.1 1.3-0.3 0.2-0.2 0.4-0.4 0.6-0.8 0.1-0.2 0.2-0.7 0.4-1.5l0.1-0.4c-0.9 0.7-1.8 1.1-2.7 1.1 -0.9 0-1.7-0.3-2.2-1 -0.6-0.6-0.9-1.6-0.9-2.8 0-1.1 0.2-2.1 0.6-3 0.4-0.9 1-1.6 1.7-2.1 0.7-0.5 1.5-0.7 2.2-0.7 0.6 0 1.2 0.2 1.7 0.5 0.5 0.3 0.9 0.8 1.2 1.4l0.4-1.7h2.4l-1.6 7.8c-0.3 1.2-0.5 2.1-0.7 2.7 -0.2 0.5-0.4 1-0.6 1.3 -0.2 0.3-0.5 0.6-0.9 0.8 -0.4 0.2-0.8 0.4-1.3 0.5s-1 0.1-1.6 0.1c-1.3 0-2.3-0.2-3-0.7s-1-1.2-1-2.2C556.1 340.4 556.1 340.3 556.1 340.2zM559.1 335.7c0 0.7 0.2 1.3 0.5 1.6 0.3 0.4 0.7 0.6 1.2 0.6 0.4 0 0.9-0.2 1.3-0.5 0.4-0.3 0.7-0.8 0.9-1.4 0.2-0.6 0.3-1.2 0.3-1.8 0-0.7-0.2-1.2-0.5-1.6 -0.4-0.4-0.8-0.6-1.2-0.6 -0.5 0-0.9 0.2-1.2 0.5 -0.4 0.4-0.7 0.9-0.9 1.7C559.2 334.7 559.1 335.2 559.1 335.7z" class="d"/>
      <path d="M520.3 299.1h-2.5l-0.5-10.8 -2 10.8h-2.4l2.7-12.9h3.8l0.4 9 4.4-9h3.8l-2.7 12.9h-2.4l2.5-10.7L520.3 299.1z" class="d"/>
      <path d="M536.9 295.2h-6.3c0 0.1 0 0.2 0 0.2 0 0.6 0.2 1.1 0.5 1.5s0.8 0.6 1.3 0.6c0.8 0 1.5-0.4 2-1.3l2.3 0.4c-0.4 0.9-1 1.6-1.8 2s-1.6 0.7-2.5 0.7c-1.3 0-2.3-0.4-3.1-1.2 -0.8-0.8-1.2-1.8-1.2-3.1 0-1.3 0.4-2.4 1.1-3.4 1-1.3 2.3-2 4.1-2 1.1 0 2.1 0.4 2.7 1.1 0.7 0.7 1 1.7 1 3C537.1 294.2 537.1 294.8 536.9 295.2zM534.8 293.7c0-0.1 0-0.2 0-0.3 0-0.7-0.2-1.2-0.5-1.6 -0.3-0.3-0.7-0.5-1.2-0.5 -0.5 0-1 0.2-1.4 0.6 -0.4 0.4-0.7 1-0.8 1.7L534.8 293.7 534.8 293.7z" class="d"/>
      <path d="M538.5 291.7l0.4-1.9h1.2l0.3-1.5 2.9-1.7 -0.7 3.2h1.5l-0.4 1.9h-1.5l-0.8 3.9c-0.1 0.7-0.2 1.1-0.2 1.2 0 0.2 0.1 0.3 0.2 0.5s0.3 0.2 0.7 0.2c0.1 0 0.4 0 0.8-0.1l-0.4 1.9c-0.4 0.1-0.9 0.1-1.3 0.1 -0.9 0-1.5-0.2-1.9-0.5 -0.4-0.3-0.6-0.8-0.6-1.4 0-0.3 0.1-0.9 0.3-2l0.8-3.8L538.5 291.7 538.5 291.7z" class="d"/>
      <path d="M545.6 289.8h2.4l-0.4 1.8c0.9-1.4 1.8-2 2.9-2 0.4 0 0.8 0.1 1.2 0.3l-1 2.1c-0.2-0.1-0.5-0.1-0.7-0.1 -0.4 0-0.9 0.2-1.3 0.5 -0.4 0.3-0.8 0.8-1.1 1.3 -0.3 0.5-0.5 1.4-0.7 2.6l-0.6 2.9h-2.5L545.6 289.8z" class="d"/>
      <path d="M552.7 289.8h2.5l-2 9.3h-2.5L552.7 289.8zM553.5 286.2H556l-0.5 2.3h-2.5L553.5 286.2z" class="d"/>
      <path d="M562.2 295.6l2.5 0.4c-0.4 1.1-1 1.9-1.8 2.5s-1.7 0.9-2.7 0.9c-1.2 0-2.1-0.4-2.8-1.1 -0.7-0.7-1-1.7-1-2.9 0-1 0.2-2 0.6-2.9 0.4-0.9 1.1-1.6 1.9-2.1 0.9-0.5 1.8-0.8 2.8-0.8 1.1 0 2 0.3 2.6 0.9 0.7 0.6 1 1.3 1.1 2.3l-2.4 0.3c-0.1-0.5-0.2-0.9-0.5-1.1 -0.3-0.2-0.6-0.4-1-0.4 -0.5 0-0.9 0.2-1.4 0.5s-0.7 0.9-1 1.6c-0.2 0.7-0.3 1.4-0.3 2 0 0.6 0.1 1 0.4 1.3 0.3 0.3 0.6 0.4 1 0.4 0.4 0 0.8-0.1 1.2-0.4S561.9 296.2 562.2 295.6z" class="d"/>
      <path d="M565.5 296.5l2.4-0.4c0.2 0.5 0.5 0.9 0.8 1.1 0.3 0.2 0.8 0.3 1.3 0.3 0.6 0 1-0.1 1.4-0.4 0.2-0.2 0.4-0.4 0.4-0.6 0-0.2-0.1-0.3-0.2-0.5 -0.1-0.1-0.5-0.3-1-0.5 -1.5-0.5-2.5-0.9-2.8-1.2 -0.6-0.5-0.9-1.1-0.9-1.8s0.3-1.4 0.8-1.9c0.8-0.7 1.9-1.1 3.4-1.1 1.2 0 2.1 0.2 2.7 0.7 0.6 0.4 1 1 1.2 1.8l-2.3 0.4c-0.1-0.3-0.3-0.6-0.6-0.8 -0.4-0.2-0.8-0.3-1.4-0.3 -0.5 0-0.9 0.1-1.1 0.3 -0.2 0.2-0.3 0.4-0.3 0.6 0 0.2 0.1 0.4 0.4 0.6 0.1 0.1 0.6 0.3 1.4 0.5 1.2 0.4 2.1 0.7 2.5 1.1 0.6 0.5 0.9 1.1 0.9 1.8 0 0.9-0.4 1.7-1.1 2.3s-1.8 1-3.1 1c-1.3 0-2.4-0.2-3.1-0.7C566.2 298.1 565.7 297.4 565.5 296.5z" class="d"/>
    <polygon points="219 41 215.6 47.8 212.2 41 " class="d"/>
    <line x1="393.5" y1="10.3" x2="392.9" y2="42" class="a"/>
    <polygon points="389.5 40.8 392.8 47.7 396.4 41 " class="d"/>
      <path d="M459.1 26.3c0-0.8 0.1-1.6 0.3-2.4 0.3-1.1 0.8-2.1 1.4-2.9 0.6-0.8 1.4-1.5 2.3-2 0.9-0.5 2-0.7 3.2-0.7 1.6 0 2.9 0.5 3.9 1.5 1 1 1.5 2.3 1.5 3.9 0 1.4-0.3 2.7-1 3.9 -0.6 1.3-1.5 2.3-2.6 2.9s-2.3 1-3.7 1c-1.2 0-2.2-0.3-3-0.8 -0.8-0.5-1.4-1.2-1.7-2C459.3 27.9 459.1 27.1 459.1 26.3zM461.7 26.3c0 0.9 0.3 1.6 0.8 2.2 0.5 0.6 1.2 0.9 2.1 0.9 0.7 0 1.4-0.2 2.1-0.7 0.7-0.5 1.2-1.2 1.6-2.1 0.4-1 0.6-1.9 0.6-2.8 0-1-0.3-1.8-0.8-2.4 -0.5-0.6-1.2-0.9-2.1-0.9 -1.3 0-2.3 0.6-3.2 1.8C462.1 23.5 461.7 24.8 461.7 26.3z" class="d"/>
      <path d="M474.1 22h2.4l-0.2 1c0.5-0.4 1-0.7 1.4-0.9 0.4-0.2 0.9-0.3 1.4-0.3 1 0 1.8 0.3 2.4 1 0.6 0.7 0.9 1.7 0.9 3 0 1.7-0.5 3.1-1.5 4.3 -0.9 1-1.9 1.5-3.1 1.5 -1.2 0-2.2-0.5-2.8-1.5l-1 4.8h-2.5L474.1 22zM475.7 27.4c0 0.7 0.2 1.3 0.5 1.7 0.4 0.4 0.8 0.6 1.3 0.6 0.4 0 0.8-0.2 1.2-0.5 0.4-0.3 0.7-0.8 1-1.5 0.3-0.7 0.4-1.3 0.4-1.9 0-0.7-0.2-1.2-0.5-1.6s-0.8-0.6-1.3-0.6c-0.5 0-0.9 0.2-1.3 0.5 -0.4 0.3-0.7 0.8-0.9 1.5S475.7 26.9 475.7 27.4z" class="d"/>
      <path d="M483.9 23.9l0.4-1.9h1.2l0.3-1.5 2.9-1.7 -0.7 3.2h1.5l-0.4 1.9h-1.5l-0.8 3.9c-0.1 0.7-0.2 1.1-0.2 1.2 0 0.2 0.1 0.3 0.2 0.5s0.3 0.2 0.7 0.2c0.1 0 0.4 0 0.8-0.1l-0.4 1.9c-0.4 0.1-0.9 0.1-1.3 0.1 -0.9 0-1.5-0.2-1.9-0.5 -0.4-0.3-0.6-0.8-0.6-1.4 0-0.3 0.1-0.9 0.3-2l0.8-3.8L483.9 23.9 483.9 23.9z" class="d"/>
      <path d="M491.3 22h2.5l-2 9.3h-2.5L491.3 22zM492 18.5h2.5l-0.5 2.3h-2.5L492 18.5z" class="d"/>
      <path d="M496.2 22h2.4l-0.2 1.1c0.9-0.9 1.9-1.4 2.9-1.4 0.7 0 1.2 0.1 1.6 0.4 0.4 0.3 0.6 0.7 0.7 1.2 0.3-0.5 0.8-0.9 1.4-1.2 0.6-0.3 1.2-0.5 1.9-0.5 0.7 0 1.3 0.2 1.7 0.6 0.4 0.4 0.6 0.9 0.6 1.6 0 0.3-0.1 0.9-0.2 1.7l-1.2 5.7h-2.5l1.2-5.7c0.1-0.7 0.2-1.1 0.2-1.2 0-0.3-0.1-0.5-0.2-0.6 -0.2-0.1-0.4-0.2-0.7-0.2 -0.6 0-1.2 0.3-1.7 1 -0.4 0.5-0.7 1.3-0.9 2.5l-0.9 4.2h-2.5l1.2-5.6c0.1-0.6 0.2-1.1 0.2-1.3 0-0.2-0.1-0.4-0.2-0.6 -0.2-0.2-0.4-0.2-0.7-0.2 -0.3 0-0.6 0.1-0.9 0.2s-0.5 0.4-0.8 0.7c-0.2 0.3-0.4 0.7-0.6 1.1 -0.1 0.2-0.2 0.7-0.3 1.4l-0.9 4.3h-2.5L496.2 22z" class="d"/>
      <path d="M512.3 22h2.5l-2 9.3h-2.5L512.3 22zM513 18.5h2.5l-0.5 2.3h-2.5L513 18.5z" class="d"/>
      <path d="M514.9 31.4l0.4-1.7 5.1-5.7h-4.2l0.4-2h7.3l-0.3 1.5 -5.2 5.8h4.5l-0.4 2H514.9z" class="d"/>
      <path d="M533.4 27.5h-6.3c0 0.1 0 0.2 0 0.2 0 0.6 0.2 1.1 0.5 1.5s0.8 0.6 1.3 0.6c0.8 0 1.5-0.4 2-1.3l2.3 0.4c-0.4 0.9-1 1.6-1.8 2 -0.7 0.5-1.6 0.7-2.5 0.7 -1.3 0-2.3-0.4-3.1-1.2s-1.2-1.8-1.2-3.2c0-1.3 0.4-2.4 1.1-3.4 1-1.3 2.3-2 4.1-2 1.1 0 2.1 0.4 2.7 1.1s1 1.7 1 3C533.6 26.4 533.6 27 533.4 27.5zM531.3 25.9c0-0.1 0-0.2 0-0.3 0-0.7-0.2-1.2-0.5-1.6 -0.3-0.3-0.7-0.5-1.2-0.5 -0.5 0-1 0.2-1.4 0.6 -0.4 0.4-0.7 1-0.8 1.7L531.3 25.9 531.3 25.9z" class="d"/>
    <a href = "http://clang.llvm.org/" class = "flowsvg hvr-grow">
    <path d="M124.9 295.1c0-5 4-9 9-9h163.4c5 0 9 4 9 9v35.9c0 5-4 9-9 9h-163.4c-5 0-9-4-9-9V295.1L124.9 295.1z" class="m"/> </a>
      <path d="M168 315l2.5 0.8c-0.4 1.4-1 2.5-1.9 3.1 -0.9 0.7-2 1-3.4 1 -1.7 0-3.1-0.6-4.2-1.8 -1.1-1.2-1.7-2.8-1.7-4.8 0-2.1 0.6-3.8 1.7-5 1.1-1.2 2.6-1.8 4.4-1.8 1.6 0 2.9 0.5 3.8 1.4 0.6 0.6 1 1.3 1.3 2.4l-2.6 0.6c-0.2-0.7-0.5-1.2-1-1.6 -0.5-0.4-1.1-0.6-1.8-0.6 -1 0-1.7 0.3-2.3 1 -0.6 0.7-0.9 1.8-0.9 3.3 0 1.6 0.3 2.8 0.9 3.5 0.6 0.7 1.3 1 2.3 1 0.7 0 1.3-0.2 1.8-0.7C167.5 316.7 167.8 316 168 315z" class="d"/>
      <path d="M175.6 317.9v-3.3h-3.4v-2.3h3.4v-3.3h2.3v3.3h3.4v2.3h-3.4v3.3H175.6z" class="d"/>
      <path d="M186.1 317.9v-3.3h-3.4v-2.3h3.4v-3.3h2.3v3.3h3.4v2.3h-3.4v3.3H186.1z" class="d"/>
      <path d="M206.9 313.2l-2.4 0.4c-0.1-0.5-0.3-0.9-0.6-1.1s-0.7-0.4-1.1-0.4c-0.6 0-1.1 0.2-1.5 0.6 -0.4 0.4-0.5 1.1-0.5 2.1 0 1.1 0.2 1.9 0.6 2.3 0.4 0.5 0.9 0.7 1.5 0.7 0.5 0 0.9-0.1 1.2-0.4 0.3-0.3 0.5-0.7 0.6-1.4l2.4 0.4c-0.3 1.1-0.7 2-1.4 2.5 -0.7 0.6-1.7 0.9-2.9 0.9 -1.4 0-2.5-0.4-3.3-1.3 -0.8-0.9-1.2-2.1-1.2-3.6 0-1.5 0.4-2.7 1.2-3.6 0.8-0.9 1.9-1.3 3.3-1.3 1.1 0 2 0.2 2.7 0.7S206.6 312.2 206.9 313.2z" class="d"/>
      <path d="M208.2 315c0-0.8 0.2-1.6 0.6-2.4 0.4-0.8 1-1.4 1.7-1.8 0.7-0.4 1.6-0.6 2.5-0.6 1.4 0 2.6 0.5 3.5 1.4 0.9 0.9 1.4 2.1 1.4 3.5 0 1.4-0.5 2.6-1.4 3.5 -0.9 0.9-2.1 1.4-3.4 1.4 -0.9 0-1.7-0.2-2.4-0.6 -0.8-0.4-1.4-1-1.8-1.7C208.4 317 208.2 316 208.2 315zM210.7 315.1c0 0.9 0.2 1.6 0.7 2.1 0.4 0.5 1 0.7 1.6 0.7s1.2-0.2 1.6-0.7c0.4-0.5 0.7-1.2 0.7-2.1 0-0.9-0.2-1.6-0.7-2.1 -0.4-0.5-1-0.7-1.6-0.7s-1.2 0.2-1.6 0.7C210.9 313.5 210.7 314.2 210.7 315.1z" class="d"/>
      <path d="M219.6 310.4h2.3v1.3c0.8-1 1.8-1.5 2.9-1.5 0.6 0 1.1 0.1 1.6 0.4s0.8 0.6 1.1 1.1c0.4-0.5 0.9-0.9 1.3-1.1 0.5-0.2 1-0.4 1.5-0.4 0.7 0 1.3 0.1 1.7 0.4 0.5 0.3 0.8 0.7 1.1 1.2 0.2 0.4 0.3 1 0.3 1.9v6h-2.5v-5.3c0-0.9-0.1-1.5-0.3-1.8 -0.2-0.4-0.6-0.5-1.1-0.5 -0.3 0-0.7 0.1-1 0.3 -0.3 0.2-0.5 0.5-0.7 0.9 -0.1 0.4-0.2 1.1-0.2 1.9v4.5h-2.5v-5.1c0-0.9 0-1.5-0.1-1.8 -0.1-0.3-0.2-0.5-0.4-0.6 -0.2-0.1-0.4-0.2-0.8-0.2 -0.4 0-0.7 0.1-1 0.3 -0.3 0.2-0.5 0.5-0.7 0.9 -0.1 0.4-0.2 1-0.2 1.9v4.5h-2.5v-9.3H219.6z" class="d"/>
      <path d="M235.7 310.4h2.3v1.4c0.3-0.5 0.7-0.8 1.2-1.1s1.1-0.4 1.7-0.4c1.1 0 2 0.4 2.8 1.3s1.1 2 1.1 3.6c0 1.6-0.4 2.8-1.1 3.6 -0.8 0.9-1.7 1.3-2.8 1.3 -0.5 0-1-0.1-1.4-0.3s-0.9-0.6-1.3-1.1v4.7h-2.5L235.7 310.4 235.7 310.4zM238.1 314.9c0 1 0.2 1.8 0.6 2.3 0.4 0.5 0.9 0.8 1.5 0.8 0.6 0 1.1-0.2 1.4-0.7 0.4-0.5 0.6-1.2 0.6-2.3 0-1-0.2-1.7-0.6-2.2 -0.4-0.5-0.9-0.7-1.5-0.7 -0.6 0-1.1 0.2-1.5 0.7C238.3 313.3 238.1 314 238.1 314.9z" class="d"/>
      <path d="M246.8 309.2v-2.3h2.5v2.3H246.8zM246.8 319.8v-9.3h2.5v9.3H246.8z" class="d"/>
      <path d="M251.8 319.8v-12.9h2.5v12.9H251.8z" class="d"/>
      <path d="M262.3 316.8l2.5 0.4c-0.3 0.9-0.8 1.6-1.5 2.1 -0.7 0.5-1.5 0.7-2.6 0.7 -1.6 0-2.8-0.5-3.6-1.6 -0.6-0.8-0.9-1.9-0.9-3.2 0-1.5 0.4-2.8 1.2-3.6s1.8-1.3 3.1-1.3c1.4 0 2.5 0.5 3.3 1.4 0.8 0.9 1.2 2.3 1.2 4.2h-6.2c0 0.7 0.2 1.3 0.6 1.7 0.4 0.4 0.9 0.6 1.4 0.6 0.4 0 0.7-0.1 1-0.3C261.9 317.6 262.1 317.3 262.3 316.8zM262.4 314.3c0-0.7-0.2-1.3-0.6-1.6 -0.4-0.4-0.8-0.6-1.3-0.6 -0.5 0-1 0.2-1.3 0.6s-0.5 0.9-0.5 1.6H262.4L262.4 314.3z" class="d"/>
      <path d="M269.2 319.8h-2.5v-9.3h2.3v1.3c0.4-0.6 0.7-1 1.1-1.2 0.3-0.2 0.7-0.3 1.1-0.3 0.6 0 1.1 0.2 1.6 0.5l-0.8 2.2c-0.4-0.3-0.8-0.4-1.2-0.4 -0.3 0-0.6 0.1-0.9 0.3 -0.2 0.2-0.4 0.5-0.6 1 -0.1 0.5-0.2 1.5-0.2 3.1L269.2 319.8 269.2 319.8z" class="d"/>
    <polygon points="342.4 278 443.4 278 443.4 348.1 342.4 348.1 " class="i"/>
      <path d="M365.2 293.1l2.4-0.2c0.1 0.8 0.4 1.4 0.9 1.8 0.4 0.4 1 0.6 1.8 0.6 0.8 0 1.4-0.2 1.8-0.5 0.4-0.3 0.6-0.7 0.6-1.2 0-0.3-0.1-0.5-0.3-0.7 -0.2-0.2-0.5-0.4-0.9-0.5 -0.3-0.1-0.9-0.3-2-0.5 -1.3-0.3-2.2-0.7-2.8-1.2 -0.7-0.7-1.1-1.5-1.1-2.4 0-0.6 0.2-1.2 0.5-1.7 0.4-0.5 0.9-0.9 1.5-1.2 0.7-0.3 1.5-0.4 2.4-0.4 1.5 0 2.7 0.3 3.4 1 0.8 0.7 1.2 1.6 1.2 2.7l-2.5 0.1c-0.1-0.6-0.3-1.1-0.7-1.3 -0.3-0.3-0.9-0.4-1.6-0.4 -0.7 0-1.3 0.1-1.7 0.4 -0.3 0.2-0.4 0.4-0.4 0.8 0 0.3 0.1 0.5 0.4 0.7 0.3 0.3 1.1 0.5 2.3 0.8 1.2 0.3 2.1 0.6 2.7 0.9 0.6 0.3 1 0.7 1.3 1.2 0.3 0.5 0.5 1.2 0.5 1.9 0 0.7-0.2 1.4-0.6 2 -0.4 0.6-0.9 1.1-1.6 1.4s-1.6 0.4-2.6 0.4c-1.5 0-2.7-0.4-3.5-1.1C365.8 295.5 365.3 294.5 365.2 293.1z" class="d"/>
      <path d="M378.8 297.1l-2.8-8.8h2.3l1.7 5.8 1.5-5.8h2.3l1.5 5.8 1.7-5.8h2.3l-2.8 8.8h-2.2l-1.5-5.7 -1.5 5.7H378.8z" class="d"/>
      <path d="M390.7 287.1v-2.2h2.3v2.2H390.7zM390.7 297.1v-8.8h2.3v8.8H390.7z" class="d"/>
      <path d="M399.4 288.3v1.9h-1.6v3.6c0 0.7 0 1.1 0 1.3 0 0.1 0.1 0.2 0.2 0.3 0.1 0.1 0.2 0.1 0.4 0.1 0.2 0 0.5-0.1 0.9-0.2l0.2 1.8c-0.5 0.2-1.2 0.4-1.8 0.4 -0.4 0-0.8-0.1-1.1-0.2 -0.3-0.1-0.6-0.3-0.7-0.5 -0.2-0.2-0.3-0.5-0.3-0.9 0-0.3-0.1-0.8-0.1-1.6v-3.8h-1.1v-1.9h1.1v-1.8l2.3-1.4v3.1H399.4L399.4 288.3z" class="d"/>
      <path d="M408.7 290.9l-2.3 0.4c-0.1-0.5-0.3-0.8-0.5-1 -0.3-0.2-0.6-0.3-1.1-0.3 -0.6 0-1 0.2-1.4 0.6 -0.3 0.4-0.5 1.1-0.5 2 0 1 0.2 1.8 0.5 2.2 0.4 0.4 0.8 0.6 1.4 0.6 0.4 0 0.8-0.1 1.1-0.4 0.3-0.3 0.5-0.7 0.6-1.3l2.3 0.4c-0.2 1.1-0.7 1.8-1.4 2.4 -0.7 0.5-1.6 0.8-2.7 0.8 -1.3 0-2.3-0.4-3.1-1.2 -0.8-0.8-1.1-1.9-1.1-3.4 0-1.5 0.4-2.6 1.2-3.4 0.8-0.8 1.8-1.2 3.1-1.2 1.1 0 1.9 0.2 2.6 0.7C408 289.2 408.4 289.9 408.7 290.9z" class="d"/>
      <path d="M412.8 284.9v4.5c0.8-0.9 1.7-1.3 2.7-1.3 0.5 0 1 0.1 1.5 0.3 0.4 0.2 0.8 0.5 1 0.8 0.2 0.3 0.4 0.7 0.4 1 0.1 0.4 0.1 1 0.1 1.8v5.2h-2.3v-4.7c0-0.9 0-1.5-0.1-1.8 -0.1-0.2-0.2-0.4-0.5-0.6 -0.2-0.1-0.5-0.2-0.8-0.2 -0.4 0-0.7 0.1-1 0.3 -0.3 0.2-0.5 0.5-0.7 0.9 -0.1 0.4-0.2 0.9-0.2 1.7v4.4h-2.3v-12.2H412.8L412.8 284.9z" class="d"/>
      <path d="M348.3 314.7l2.4-0.2c0.1 0.8 0.4 1.4 0.9 1.8 0.4 0.4 1 0.6 1.8 0.6 0.8 0 1.4-0.2 1.8-0.5 0.4-0.3 0.6-0.7 0.6-1.2 0-0.3-0.1-0.5-0.3-0.7 -0.2-0.2-0.5-0.4-0.9-0.5 -0.3-0.1-0.9-0.3-2-0.5 -1.3-0.3-2.2-0.7-2.8-1.2 -0.7-0.7-1.1-1.5-1.1-2.4 0-0.6 0.2-1.2 0.5-1.7 0.4-0.5 0.9-0.9 1.5-1.2 0.7-0.3 1.5-0.4 2.4-0.4 1.5 0 2.7 0.3 3.4 1 0.8 0.7 1.2 1.6 1.2 2.7l-2.5 0.1c-0.1-0.6-0.3-1.1-0.7-1.3 -0.3-0.3-0.9-0.4-1.6-0.4 -0.7 0-1.3 0.1-1.7 0.4 -0.3 0.2-0.4 0.4-0.4 0.8 0 0.3 0.1 0.5 0.4 0.7 0.3 0.3 1.1 0.5 2.3 0.8 1.2 0.3 2.1 0.6 2.7 0.9 0.6 0.3 1 0.7 1.3 1.2 0.3 0.5 0.5 1.2 0.5 1.9 0 0.7-0.2 1.4-0.6 2 -0.4 0.6-0.9 1.1-1.6 1.4s-1.6 0.4-2.6 0.4c-1.5 0-2.7-0.4-3.5-1.1C348.9 317.1 348.4 316.1 348.3 314.7z" class="d"/>
      <path d="M360.2 308.7v-2.2h2.3v2.2H360.2zM360.2 318.7v-8.8h2.3v8.8H360.2z" class="d"/>
      <path d="M364.8 309.9h2.1v1.2c0.8-0.9 1.7-1.4 2.7-1.4 0.6 0 1.1 0.1 1.5 0.3 0.4 0.2 0.8 0.6 1 1.1 0.4-0.5 0.8-0.8 1.3-1.1 0.4-0.2 0.9-0.3 1.4-0.3 0.6 0 1.2 0.1 1.6 0.4 0.4 0.3 0.8 0.6 1 1.2 0.2 0.4 0.2 1 0.2 1.8v5.6h-2.3v-5c0-0.9-0.1-1.4-0.2-1.7 -0.2-0.3-0.5-0.5-1-0.5 -0.3 0-0.6 0.1-0.9 0.3s-0.5 0.5-0.6 0.9 -0.2 1-0.2 1.8v4.2h-2.3v-4.8c0-0.9 0-1.4-0.1-1.7 -0.1-0.2-0.2-0.4-0.4-0.6 -0.2-0.1-0.4-0.2-0.7-0.2 -0.4 0-0.7 0.1-1 0.3 -0.3 0.2-0.5 0.5-0.6 0.8 -0.1 0.4-0.2 1-0.2 1.8v4.3h-2.3V309.9L364.8 309.9z" class="d"/>
      <path d="M385.8 318.7v-1.3c-0.3 0.5-0.7 0.8-1.3 1.1 -0.5 0.3-1.1 0.4-1.7 0.4 -0.6 0-1.1-0.1-1.6-0.4s-0.8-0.6-1-1.1c-0.2-0.5-0.3-1.1-0.3-1.9v-5.6h2.3v4.1c0 1.2 0 2 0.1 2.3 0.1 0.3 0.2 0.5 0.5 0.7s0.5 0.2 0.9 0.2c0.4 0 0.8-0.1 1.1-0.3 0.3-0.2 0.5-0.5 0.6-0.8 0.1-0.3 0.2-1.1 0.2-2.4v-3.7h2.3v8.8L385.8 318.7 385.8 318.7z" class="d"/>
      <path d="M390.5 318.7v-12.2h2.3v12.2H390.5z" class="d"/>
      <path d="M397 312.5l-2.1-0.4c0.2-0.9 0.6-1.5 1.2-1.9 0.6-0.4 1.4-0.6 2.6-0.6 1 0 1.8 0.1 2.3 0.4 0.5 0.2 0.9 0.6 1.1 0.9 0.2 0.4 0.3 1.1 0.3 2.1l0 2.7c0 0.8 0 1.3 0.1 1.7 0.1 0.4 0.2 0.8 0.4 1.2h-2.3c-0.1-0.2-0.1-0.4-0.2-0.7 0-0.1-0.1-0.2-0.1-0.3 -0.4 0.4-0.8 0.7-1.3 0.9 -0.5 0.2-0.9 0.3-1.5 0.3 -0.9 0-1.6-0.2-2.1-0.7 -0.5-0.5-0.8-1.1-0.8-1.9 0-0.5 0.1-0.9 0.4-1.3 0.2-0.4 0.6-0.7 1-0.9 0.4-0.2 1-0.4 1.9-0.5 1.1-0.2 1.8-0.4 2.3-0.6v-0.2c0-0.4-0.1-0.8-0.3-1s-0.6-0.3-1.3-0.3c-0.4 0-0.7 0.1-1 0.2C397.3 311.9 397.1 312.1 397 312.5zM400.1 314.4c-0.3 0.1-0.8 0.2-1.4 0.4 -0.6 0.1-1.1 0.3-1.3 0.4 -0.3 0.2-0.5 0.5-0.5 0.8 0 0.3 0.1 0.6 0.4 0.8 0.2 0.2 0.6 0.4 0.9 0.4 0.4 0 0.8-0.1 1.2-0.4 0.3-0.2 0.5-0.5 0.6-0.8 0.1-0.2 0.1-0.6 0.1-1.1V314.4L400.1 314.4z" class="d"/>
      <path d="M408.7 309.9v1.9h-1.6v3.6c0 0.7 0 1.1 0 1.3 0 0.1 0.1 0.2 0.2 0.3 0.1 0.1 0.2 0.1 0.4 0.1 0.2 0 0.5-0.1 0.9-0.2l0.2 1.8c-0.5 0.2-1.2 0.3-1.8 0.3 -0.4 0-0.8-0.1-1.1-0.2s-0.6-0.3-0.7-0.5c-0.2-0.2-0.3-0.5-0.3-0.9 0-0.3-0.1-0.8-0.1-1.6v-3.8h-1.1v-1.9h1.1v-1.8l2.3-1.4v3.1H408.7L408.7 309.9z" class="d"/>
      <path d="M410.3 308.7v-2.2h2.3v2.2H410.3zM410.3 318.7v-8.8h2.3v8.8H410.3z" class="d"/>
      <path d="M414.5 314.1c0-0.8 0.2-1.5 0.6-2.2 0.4-0.7 0.9-1.3 1.6-1.7 0.7-0.4 1.5-0.6 2.3-0.6 1.3 0 2.4 0.4 3.3 1.3 0.9 0.9 1.3 2 1.3 3.3 0 1.3-0.4 2.4-1.3 3.3 -0.9 0.9-1.9 1.3-3.2 1.3 -0.8 0-1.6-0.2-2.3-0.5 -0.7-0.4-1.3-0.9-1.7-1.6C414.7 316 414.5 315.2 414.5 314.1zM416.9 314.3c0 0.9 0.2 1.5 0.6 2 0.4 0.5 0.9 0.7 1.5 0.7 0.6 0 1.1-0.2 1.5-0.7 0.4-0.5 0.6-1.1 0.6-2 0-0.9-0.2-1.5-0.6-2s-0.9-0.7-1.5-0.7c-0.6 0-1.1 0.2-1.5 0.7C417.1 312.7 416.9 313.4 416.9 314.3z" class="d"/>
      <path d="M433.5 318.7h-2.3v-4.5c0-1 0-1.6-0.1-1.8 -0.1-0.3-0.3-0.5-0.5-0.7 -0.2-0.2-0.5-0.2-0.8-0.2 -0.4 0-0.8 0.1-1.1 0.3s-0.5 0.5-0.7 0.9 -0.2 1-0.2 2v4h-2.3v-8.8h2.2v1.3c0.8-1 1.7-1.5 2.9-1.5 0.5 0 1 0.1 1.4 0.3 0.4 0.2 0.7 0.4 1 0.7 0.2 0.3 0.4 0.6 0.5 1s0.1 0.9 0.1 1.6V318.7L433.5 318.7z" class="d"/>
      <path d="M367.1 328.1h4.9c1 0 1.7 0 2.2 0.1 0.5 0.1 0.9 0.2 1.3 0.5 0.4 0.3 0.7 0.6 0.9 1 0.3 0.4 0.4 0.9 0.4 1.4 0 0.6-0.2 1.1-0.5 1.6 -0.3 0.5-0.7 0.8-1.2 1.1 0.7 0.2 1.3 0.6 1.7 1.1 0.4 0.5 0.6 1.1 0.6 1.8 0 0.6-0.1 1.1-0.4 1.6 -0.3 0.5-0.6 0.9-1.1 1.3 -0.4 0.3-1 0.5-1.6 0.6 -0.4 0-1.4 0.1-3 0.1h-4.1V328.1zM369.6 330.1v2.8h1.6c1 0 1.6 0 1.8 0 0.4-0.1 0.8-0.2 1-0.4 0.2-0.2 0.4-0.6 0.4-1 0-0.4-0.1-0.7-0.3-0.9 -0.2-0.2-0.5-0.4-0.9-0.4 -0.2 0-0.9 0-2.1 0L369.6 330.1 369.6 330.1zM369.6 335v3.3h2.3c0.9 0 1.4 0 1.7-0.1 0.4-0.1 0.7-0.2 0.9-0.5 0.2-0.3 0.3-0.6 0.3-1 0-0.4-0.1-0.7-0.3-0.9 -0.2-0.3-0.4-0.4-0.8-0.6 -0.3-0.1-1.1-0.2-2.2-0.2H369.6L369.6 335z" class="d"/>
      <path d="M379.3 330.3v-2.2h2.3v2.2H379.3zM379.3 340.3v-8.8h2.3v8.8H379.3z" class="d"/>
      <path d="M392.1 340.3h-2.3v-4.5c0-1-0.1-1.6-0.1-1.8 -0.1-0.3-0.3-0.5-0.5-0.7 -0.2-0.2-0.5-0.2-0.8-0.2 -0.4 0-0.8 0.1-1.1 0.3 -0.3 0.2-0.5 0.5-0.7 0.9s-0.2 1-0.2 2v4h-2.3v-8.8h2.2v1.3c0.8-1 1.7-1.5 2.9-1.5 0.5 0 1 0.1 1.4 0.3 0.4 0.2 0.7 0.4 1 0.7 0.2 0.3 0.4 0.6 0.5 1 0.1 0.4 0.1 0.9 0.1 1.6V340.3L392.1 340.3z" class="d"/>
      <path d="M396.3 334.1l-2.1-0.4c0.2-0.9 0.6-1.5 1.2-1.9s1.4-0.6 2.6-0.6c1 0 1.8 0.1 2.3 0.4 0.5 0.2 0.9 0.6 1.1 0.9 0.2 0.4 0.3 1.1 0.3 2.1l0 2.7c0 0.8 0 1.3 0.1 1.7 0.1 0.4 0.2 0.8 0.4 1.2h-2.3c-0.1-0.2-0.1-0.4-0.2-0.7 0-0.1-0.1-0.2-0.1-0.3 -0.4 0.4-0.8 0.7-1.3 0.9 -0.5 0.2-0.9 0.3-1.5 0.3 -0.9 0-1.6-0.2-2.1-0.7 -0.5-0.5-0.8-1.1-0.8-1.9 0-0.5 0.1-0.9 0.4-1.3 0.2-0.4 0.6-0.7 1-0.9 0.4-0.2 1-0.4 1.9-0.5 1.1-0.2 1.8-0.4 2.3-0.6v-0.2c0-0.4-0.1-0.8-0.3-1 -0.2-0.2-0.6-0.3-1.3-0.3 -0.4 0-0.7 0.1-1 0.2C396.6 333.5 396.4 333.7 396.3 334.1zM399.4 336c-0.3 0.1-0.8 0.2-1.4 0.4 -0.6 0.1-1.1 0.3-1.3 0.4 -0.3 0.2-0.5 0.5-0.5 0.8 0 0.3 0.1 0.6 0.4 0.8 0.2 0.2 0.6 0.4 0.9 0.4 0.4 0 0.8-0.1 1.2-0.4 0.3-0.2 0.5-0.5 0.6-0.8 0.1-0.2 0.1-0.6 0.1-1.1V336L399.4 336z" class="d"/>
      <path d="M406.2 340.3h-2.3v-8.8h2.2v1.3c0.4-0.6 0.7-1 1-1.2 0.3-0.2 0.6-0.3 1-0.3 0.5 0 1 0.1 1.5 0.4l-0.7 2c-0.4-0.3-0.8-0.4-1.1-0.4 -0.3 0-0.6 0.1-0.8 0.3 -0.2 0.2-0.4 0.5-0.5 1 -0.1 0.5-0.2 1.5-0.2 3V340.3z" class="d"/>
      <path d="M409.4 331.5h2.5l2.1 6.3 2.1-6.3h2.4l-3.1 8.5 -0.6 1.5c-0.2 0.5-0.4 0.9-0.6 1.2 -0.2 0.3-0.4 0.5-0.6 0.7 -0.2 0.2-0.5 0.3-0.9 0.4 -0.4 0.1-0.7 0.1-1.2 0.1 -0.4 0-0.9 0-1.3-0.1l-0.2-1.8c0.4 0.1 0.7 0.1 1 0.1 0.5 0 0.9-0.2 1.2-0.5 0.3-0.3 0.5-0.7 0.6-1.2L409.4 331.5z" class="d"/>
    <polyline points=" 306.2 313.1 324.4 313.1 324.4 313 334.8 313 " class="n"/>
    <polygon points="334.8 316.5 341.7 313 334.8 309.6 " class="d"/>
    <a href = "https://github.com/pfpsim/p4-validation-model" class = "flowsvg hvr-grow">
    <path d="M15.8 295.5c0-4.9 19.9-8.9 44.4-8.9s44.4 4 44.4 8.9v35.4c0 4.9-19.9 8.9-44.4 8.9s-44.4-4-44.4-8.9V295.5z" class="l"/> </a>
    <path d="M104.6 295.5c0 4.9-19.9 8.9-44.4 8.9s-44.4-4-44.4-8.9" class="h"/>
    <a href = "https://github.com/pfpsim/p4-validation-model" class = "flowsvg hvr-grow">
    <path d="M15.8 295.5c0-4.9 19.9-8.9 44.4-8.9s44.4 4 44.4 8.9v35.4c0 4.9-19.9 8.9-44.4 8.9s-44.4-4-44.4-8.9V295.5z" class="h"/> </a>
      <path d="M24.6 325.4v-12.9h4.2c1.6 0 2.6 0.1 3.1 0.2 0.7 0.2 1.4 0.6 1.9 1.3 0.5 0.6 0.7 1.5 0.7 2.5 0 0.8-0.1 1.5-0.4 2s-0.7 1-1.1 1.3c-0.4 0.3-0.9 0.5-1.3 0.6 -0.6 0.1-1.5 0.2-2.7 0.2h-1.7v4.9H24.6L24.6 325.4zM27.2 314.7v3.7h1.4c1 0 1.7-0.1 2.1-0.2 0.3-0.1 0.6-0.3 0.8-0.6 0.2-0.3 0.3-0.6 0.3-1 0-0.5-0.1-0.9-0.4-1.2s-0.6-0.5-1-0.6c-0.3-0.1-0.9-0.1-1.9-0.1H27.2L27.2 314.7z" class="d"/>
      <path d="M40.9 325.4v-2.6h-5.3v-2.2l5.6-8.2h2.1v8.2h1.6v2.2h-1.6v2.6H40.9zM40.9 320.7v-4.4l-3 4.4H40.9L40.9 320.7z" class="d"/>
      <path d="M51.5 325.4v-12.9h2.5v4.6c0.8-0.9 1.7-1.3 2.7-1.3 1.1 0 2.1 0.4 2.8 1.2 0.7 0.8 1.1 2 1.1 3.5 0 1.6-0.4 2.8-1.1 3.7 -0.8 0.9-1.7 1.3-2.8 1.3 -0.5 0-1.1-0.1-1.6-0.4 -0.5-0.3-1-0.7-1.3-1.2v1.4H51.5zM53.9 320.6c0 1 0.2 1.7 0.5 2.1 0.4 0.7 1 1 1.7 1 0.5 0 1-0.2 1.4-0.7 0.4-0.5 0.6-1.2 0.6-2.2 0-1.1-0.2-1.8-0.6-2.3 -0.4-0.5-0.9-0.7-1.5-0.7 -0.6 0-1.1 0.2-1.5 0.7C54.1 318.9 53.9 319.6 53.9 320.6z" class="d"/>
      <path d="M62.4 316.1H64.7v1.3c0.8-1 1.8-1.5 2.9-1.5 0.6 0 1.1 0.1 1.6 0.4s0.8 0.6 1.1 1.1c0.4-0.5 0.9-0.9 1.3-1.1 0.5-0.2 1-0.4 1.5-0.4 0.7 0 1.3 0.1 1.7 0.4s0.8 0.7 1.1 1.2c0.2 0.4 0.3 1 0.3 1.9v6h-2.5v-5.3c0-0.9-0.1-1.5-0.3-1.8 -0.2-0.4-0.6-0.5-1.1-0.5 -0.3 0-0.7 0.1-1 0.3s-0.5 0.5-0.7 0.9c-0.1 0.4-0.2 1.1-0.2 1.9v4.5h-2.5v-5.1c0-0.9 0-1.5-0.1-1.8 -0.1-0.3-0.2-0.5-0.4-0.6s-0.4-0.2-0.8-0.2c-0.4 0-0.7 0.1-1 0.3 -0.3 0.2-0.5 0.5-0.7 0.9 -0.1 0.4-0.2 1-0.2 1.9v4.5h-2.5L62.4 316.1 62.4 316.1z" class="d"/>
      <path d="M81.1 325.4l-3.8-9.3h2.6l1.8 4.8 0.5 1.6c0.1-0.4 0.2-0.7 0.3-0.8 0.1-0.3 0.2-0.5 0.3-0.8l1.8-4.8h2.5l-3.7 9.3H81.1L81.1 325.4z" class="d"/>
      <path d="M96 323.1v2.3h-8.7c0.1-0.9 0.4-1.7 0.8-2.5 0.5-0.8 1.4-1.8 2.8-3.1 1.1-1 1.8-1.7 2-2.1 0.3-0.5 0.5-1 0.5-1.5 0-0.6-0.1-1-0.4-1.3 -0.3-0.3-0.7-0.4-1.2-0.4 -0.5 0-0.9 0.2-1.2 0.5 -0.3 0.3-0.5 0.8-0.5 1.5l-2.5-0.2c0.1-1.4 0.6-2.3 1.4-2.9s1.7-0.9 2.9-0.9c1.3 0 2.3 0.3 3 1 0.7 0.7 1.1 1.5 1.1 2.6 0 0.6-0.1 1.1-0.3 1.7 -0.2 0.5-0.5 1.1-1 1.6 -0.3 0.4-0.8 0.9-1.6 1.6 -0.8 0.7-1.3 1.2-1.5 1.4 -0.2 0.2-0.4 0.5-0.5 0.7H96L96 323.1z" class="d"/>
    <line x1="104.6" y1="313.3" x2="119.3" y2="313.2" class="h"/>
    <polygon points="118.2 316.6 125 313.2 118.1 309.8 " class="d"/>
      <path d="M532.2 417.3v-12.9h2.6v5.1h5.1v-5.1h2.6v12.9h-2.6v-5.6h-5.1v5.6H532.2z" class="d"/>
      <path d="M544.5 412.5c0-0.8 0.2-1.6 0.6-2.4 0.4-0.8 1-1.4 1.7-1.8 0.7-0.4 1.6-0.6 2.5-0.6 1.4 0 2.6 0.5 3.5 1.4 0.9 0.9 1.4 2.1 1.4 3.5 0 1.4-0.5 2.6-1.4 3.5 -0.9 0.9-2.1 1.4-3.4 1.4 -0.9 0-1.7-0.2-2.4-0.6 -0.8-0.4-1.4-1-1.8-1.7C544.7 414.5 544.5 413.6 544.5 412.5zM547 412.7c0 0.9 0.2 1.6 0.7 2.1s1 0.7 1.6 0.7 1.2-0.2 1.6-0.7c0.4-0.5 0.7-1.2 0.7-2.1 0-0.9-0.2-1.6-0.7-2.1 -0.4-0.5-1-0.7-1.6-0.7s-1.2 0.2-1.6 0.7C547.3 411 547 411.7 547 412.7z" class="d"/>
      <path d="M555.2 414.7l2.5-0.4c0.1 0.5 0.3 0.8 0.6 1.1 0.3 0.3 0.8 0.4 1.4 0.4 0.6 0 1.1-0.1 1.4-0.4 0.2-0.2 0.3-0.4 0.3-0.7 0-0.2-0.1-0.3-0.2-0.5 -0.1-0.1-0.4-0.2-0.8-0.3 -2-0.4-3.3-0.8-3.8-1.2 -0.7-0.5-1.1-1.2-1.1-2.1 0-0.8 0.3-1.5 1-2 0.6-0.6 1.6-0.8 3-0.8 1.3 0 2.2 0.2 2.8 0.6s1 1 1.3 1.8l-2.3 0.4c-0.1-0.4-0.3-0.6-0.6-0.8 -0.3-0.2-0.7-0.3-1.2-0.3 -0.6 0-1.1 0.1-1.4 0.3 -0.2 0.1-0.3 0.3-0.3 0.5 0 0.2 0.1 0.3 0.2 0.4 0.2 0.2 1 0.4 2.3 0.7 1.3 0.3 2.2 0.7 2.8 1.1 0.5 0.4 0.8 1.1 0.8 1.8 0 0.9-0.4 1.6-1.1 2.2 -0.7 0.6-1.8 0.9-3.2 0.9 -1.3 0-2.3-0.3-3-0.8C556 416.2 555.5 415.5 555.2 414.7z" class="d"/>
      <path d="M570.4 408v2h-1.7v3.8c0 0.8 0 1.2 0.1 1.3 0 0.1 0.1 0.2 0.2 0.3 0.1 0.1 0.3 0.1 0.4 0.1 0.2 0 0.6-0.1 1-0.2l0.2 1.9c-0.6 0.2-1.2 0.4-2 0.4 -0.4 0-0.8-0.1-1.2-0.2 -0.4-0.1-0.6-0.3-0.8-0.6 -0.2-0.2-0.3-0.6-0.3-1 -0.1-0.3-0.1-0.9-0.1-1.7v-4.1h-1.1v-2h1.1v-1.9l2.5-1.4v3.3h1.7V408z" class="d"/>
    <line x1="215.4" y1="245.6" x2="215.6" y2="280.5" class="h"/>
    <polygon points="219 279.4 215.6 286.2 212.1 279.4 " class="d"/>
    <a href = "http://accellera.org/downloads/standards/systemc" class = "flowsvg hvr-grow">
    <path d="M168.8 374.9c0-4.9 21.2-8.8 47.4-8.8 26.2 0 47.4 4 47.4 8.8v35.4c0 4.9-21.2 8.8-47.4 8.8 -26.2 0-47.4-4-47.4-8.8V374.9z" class="l"/></a>
    <path d="M263.6 374.9c0 4.9-21.2 8.8-47.4 8.8 -26.2 0-47.4-4-47.4-8.8" class="h"/>
    <a href = "http://accellera.org/downloads/standards/systemc" class = "flowsvg hvr-grow">
    <path d="M168.8 374.9c0-4.9 21.2-8.8 47.4-8.8 26.2 0 47.4 4 47.4 8.8v35.4c0 4.9-21.2 8.8-47.4 8.8 -26.2 0-47.4-4-47.4-8.8V374.9z" class="h"/></a>
      <path d="M178.4 400.6l2.5-0.2c0.2 0.9 0.5 1.5 0.9 1.9 0.5 0.4 1.1 0.6 1.9 0.6 0.8 0 1.5-0.2 1.9-0.5 0.4-0.4 0.6-0.8 0.6-1.2 0-0.3-0.1-0.6-0.3-0.8 -0.2-0.2-0.5-0.4-0.9-0.6 -0.3-0.1-1-0.3-2.1-0.6 -1.4-0.3-2.4-0.8-2.9-1.3 -0.8-0.7-1.2-1.6-1.2-2.6 0-0.7 0.2-1.3 0.6-1.8 0.4-0.6 0.9-1 1.6-1.3 0.7-0.3 1.5-0.4 2.5-0.4 1.6 0 2.8 0.4 3.7 1.1 0.8 0.7 1.2 1.7 1.3 2.8l-2.6 0.1c-0.1-0.7-0.3-1.1-0.7-1.4 -0.4-0.3-0.9-0.4-1.6-0.4 -0.8 0-1.3 0.2-1.8 0.5 -0.3 0.2-0.4 0.5-0.4 0.8 0 0.3 0.1 0.6 0.4 0.8 0.3 0.3 1.1 0.6 2.4 0.9s2.2 0.6 2.8 0.9 1.1 0.8 1.4 1.3c0.3 0.6 0.5 1.2 0.5 2.1 0 0.7-0.2 1.4-0.6 2.1 -0.4 0.6-1 1.1-1.7 1.4 -0.7 0.3-1.7 0.5-2.8 0.5 -1.6 0-2.9-0.4-3.8-1.1S178.5 402.1 178.4 400.6z" class="d"/>
      <path d="M189.8 395.5h2.6l2.2 6.6 2.2-6.6h2.6l-3.3 9 -0.6 1.6c-0.2 0.5-0.4 1-0.6 1.2 -0.2 0.3-0.4 0.5-0.7 0.7 -0.3 0.2-0.6 0.3-0.9 0.4 -0.4 0.1-0.8 0.1-1.3 0.1 -0.5 0-0.9 0-1.4-0.1l-0.2-1.9c0.4 0.1 0.7 0.1 1 0.1 0.6 0 1-0.2 1.3-0.5 0.3-0.3 0.5-0.8 0.6-1.3L189.8 395.5z" class="d"/>
      <path d="M200 402.1l2.5-0.4c0.1 0.5 0.3 0.8 0.6 1.1 0.3 0.3 0.8 0.4 1.4 0.4 0.6 0 1.1-0.1 1.4-0.4 0.2-0.2 0.3-0.4 0.3-0.7 0-0.2-0.1-0.3-0.2-0.5 -0.1-0.1-0.4-0.2-0.8-0.3 -2-0.4-3.3-0.8-3.8-1.2 -0.7-0.5-1.1-1.2-1.1-2.1 0-0.8 0.3-1.5 1-2 0.6-0.6 1.6-0.8 3-0.8 1.3 0 2.2 0.2 2.8 0.6s1 1 1.3 1.8l-2.3 0.4c-0.1-0.4-0.3-0.6-0.6-0.8 -0.3-0.2-0.7-0.3-1.2-0.3 -0.6 0-1.1 0.1-1.4 0.3 -0.2 0.1-0.3 0.3-0.3 0.5 0 0.2 0.1 0.3 0.2 0.4 0.2 0.2 1 0.4 2.3 0.7 1.3 0.3 2.2 0.7 2.8 1.1 0.5 0.4 0.8 1.1 0.8 1.8 0 0.9-0.4 1.6-1.1 2.2 -0.7 0.6-1.8 0.9-3.2 0.9 -1.3 0-2.3-0.3-3-0.8C200.7 403.7 200.2 403 200 402.1z" class="d"/>
      <path d="M215.1 395.5v2h-1.7v3.8c0 0.8 0 1.2 0 1.3 0 0.1 0.1 0.2 0.2 0.3 0.1 0.1 0.3 0.1 0.4 0.1 0.2 0 0.6-0.1 1-0.2l0.2 1.9c-0.6 0.2-1.2 0.4-2 0.4 -0.4 0-0.8-0.1-1.2-0.2 -0.4-0.1-0.6-0.3-0.8-0.6 -0.2-0.2-0.3-0.6-0.3-1 -0.1-0.3-0.1-0.9-0.1-1.7v-4.1h-1.1v-2h1.1v-1.9l2.5-1.4v3.3h1.7V395.5z" class="d"/>
      <path d="M222.2 401.8l2.5 0.4c-0.3 0.9-0.8 1.6-1.5 2.1 -0.7 0.5-1.5 0.7-2.6 0.7 -1.6 0-2.8-0.5-3.6-1.6 -0.6-0.8-0.9-1.9-0.9-3.2 0-1.5 0.4-2.8 1.2-3.6s1.8-1.3 3.1-1.3c1.4 0 2.5 0.5 3.3 1.4 0.8 0.9 1.2 2.3 1.2 4.2h-6.2c0 0.7 0.2 1.3 0.6 1.7 0.4 0.4 0.9 0.6 1.4 0.6 0.4 0 0.7-0.1 1-0.3C221.9 402.6 222.1 402.3 222.2 401.8zM222.4 399.3c0-0.7-0.2-1.3-0.6-1.6 -0.4-0.4-0.8-0.6-1.3-0.6 -0.5 0-1 0.2-1.3 0.6 -0.4 0.4-0.5 0.9-0.5 1.6H222.4L222.4 399.3z" class="d"/>
      <path d="M226.6 395.5h2.3v1.3c0.8-1 1.8-1.5 2.9-1.5 0.6 0 1.1 0.1 1.6 0.4s0.8 0.6 1.1 1.1c0.4-0.5 0.9-0.9 1.3-1.1 0.5-0.2 1-0.4 1.5-0.4 0.7 0 1.3 0.1 1.7 0.4 0.5 0.3 0.8 0.7 1.1 1.2 0.2 0.4 0.3 1 0.3 1.9v6h-2.5v-5.3c0-0.9-0.1-1.5-0.3-1.8 -0.2-0.4-0.6-0.5-1.1-0.5 -0.3 0-0.7 0.1-1 0.3s-0.5 0.5-0.7 0.9c-0.1 0.4-0.2 1.1-0.2 1.9v4.5h-2.5v-5.1c0-0.9 0-1.5-0.1-1.8 -0.1-0.3-0.2-0.5-0.4-0.6s-0.4-0.2-0.8-0.2c-0.4 0-0.7 0.1-1 0.3 -0.3 0.2-0.5 0.5-0.7 0.9 -0.1 0.4-0.2 1-0.2 1.9v4.5h-2.5v-9.3H226.6z" class="d"/>
      <path d="M251 400.1l2.5 0.8c-0.4 1.4-1 2.5-1.9 3.1 -0.9 0.7-2 1-3.4 1 -1.7 0-3.1-0.6-4.2-1.8 -1.1-1.2-1.7-2.8-1.7-4.8 0-2.1 0.6-3.8 1.7-5 1.1-1.2 2.6-1.8 4.4-1.8 1.6 0 2.9 0.5 3.8 1.4 0.6 0.6 1 1.3 1.3 2.4l-2.6 0.6c-0.2-0.7-0.5-1.2-1-1.6s-1.1-0.6-1.8-0.6c-1 0-1.7 0.3-2.3 1 -0.6 0.7-0.9 1.8-0.9 3.3 0 1.6 0.3 2.8 0.9 3.5 0.6 0.7 1.3 1 2.3 1 0.7 0 1.3-0.2 1.8-0.7C250.5 401.7 250.8 401 251 400.1z" class="d"/>
    <line x1="216.2" y1="366.1" x2="215.9" y2="345.3" class="h"/>
    <polygon points="212.5 346.4 215.8 339.6 219.4 346.3 " class="d"/>
      <path d="M15.9 12.7h2.6v7c0 1.1 0 1.8 0.1 2.2 0.1 0.5 0.4 1 0.8 1.3 0.4 0.3 1 0.5 1.7 0.5 0.7 0 1.3-0.2 1.7-0.5 0.4-0.3 0.6-0.7 0.7-1.1s0.1-1.2 0.1-2.2V12.7h2.6v6.8c0 1.5-0.1 2.6-0.2 3.3 -0.1 0.6-0.4 1.2-0.8 1.6s-0.9 0.8-1.5 1.1c-0.6 0.3-1.5 0.4-2.5 0.4 -1.2 0-2.2-0.1-2.8-0.4 -0.6-0.3-1.1-0.7-1.5-1.1 -0.4-0.5-0.6-0.9-0.7-1.4 -0.2-0.7-0.3-1.8-0.3-3.3L15.9 12.7 15.9 12.7z" class="o"/>
      <path d="M28.3 21.4l2.5-0.2c0.2 0.9 0.5 1.5 0.9 1.9 0.5 0.4 1.1 0.6 1.9 0.6 0.8 0 1.5-0.2 1.9-0.5s0.6-0.8 0.6-1.2c0-0.3-0.1-0.6-0.3-0.8 -0.2-0.2-0.5-0.4-0.9-0.6 -0.3-0.1-1-0.3-2.1-0.6 -1.4-0.3-2.4-0.8-2.9-1.3 -0.8-0.7-1.2-1.6-1.2-2.6 0-0.7 0.2-1.3 0.6-1.8 0.4-0.6 0.9-1 1.6-1.3 0.7-0.3 1.5-0.4 2.5-0.4 1.6 0 2.8 0.4 3.7 1.1s1.2 1.7 1.3 2.8l-2.6 0.1c-0.1-0.7-0.3-1.1-0.7-1.4 -0.4-0.3-0.9-0.4-1.6-0.4 -0.8 0-1.3 0.2-1.8 0.5 -0.3 0.2-0.4 0.5-0.4 0.8 0 0.3 0.1 0.6 0.4 0.8 0.3 0.3 1.1 0.6 2.4 0.9 1.3 0.3 2.2 0.6 2.8 0.9 0.6 0.3 1.1 0.8 1.4 1.3 0.3 0.6 0.5 1.2 0.5 2.1 0 0.7-0.2 1.4-0.6 2.1s-1 1.1-1.7 1.4 -1.7 0.5-2.8 0.5c-1.6 0-2.9-0.4-3.8-1.1C29 23.9 28.4 22.8 28.3 21.4z" class="o"/>
      <path d="M40.9 25.6V12.7h9.6v2.2h-7v2.9H50v2.2h-6.5v3.5h7.2v2.2H40.9z" class="o"/>
      <path d="M52.9 25.6V12.7h5.5c1.4 0 2.4 0.1 3 0.3s1.1 0.6 1.5 1.2 0.6 1.3 0.6 2c0 1-0.3 1.8-0.9 2.4 -0.6 0.6-1.4 1-2.5 1.2 0.6 0.3 1 0.7 1.4 1.1 0.4 0.4 0.9 1.1 1.5 2.1l1.6 2.5h-3.1l-1.9-2.8c-0.7-1-1.1-1.6-1.4-1.9 -0.2-0.3-0.5-0.4-0.8-0.5 -0.3-0.1-0.7-0.1-1.3-0.1h-0.5v5.4H52.9zM55.5 18.1h1.9c1.2 0 2-0.1 2.3-0.2s0.6-0.3 0.7-0.5c0.2-0.3 0.3-0.6 0.3-1 0-0.4-0.1-0.8-0.3-1s-0.6-0.4-1-0.5c-0.2 0-0.8 0-1.9 0h-2L55.5 18.1 55.5 18.1z" class="o"/>
      <path d="M16 47.1V34.4h2.6v10.6h6.5v2.2H16z" class="l"/>
      <path d="M26.9 47.1V34.3h2.6v12.9L26.9 47.1 26.9 47.1z" class="l"/>
      <path d="M32 34.3h5.2c1 0 1.8 0 2.3 0.1 0.5 0.1 0.9 0.3 1.3 0.5s0.7 0.6 1 1.1c0.3 0.4 0.4 1 0.4 1.5 0 0.6-0.2 1.2-0.5 1.7 -0.3 0.5-0.8 0.9-1.3 1.1 0.8 0.2 1.4 0.6 1.8 1.2 0.4 0.6 0.6 1.2 0.6 1.9 0 0.6-0.1 1.2-0.4 1.7 -0.3 0.6-0.6 1-1.1 1.3 -0.5 0.3-1.1 0.5-1.7 0.6 -0.4 0-1.5 0.1-3.1 0.1h-4.4V34.3zM34.6 36.4v3h1.7c1 0 1.6 0 1.9 0 0.4-0.1 0.8-0.2 1.1-0.5 0.3-0.3 0.4-0.6 0.4-1 0-0.4-0.1-0.7-0.3-1 -0.2-0.2-0.5-0.4-1-0.5 -0.3 0-1 0-2.2 0H34.6zM34.6 41.5v3.4h2.4c0.9 0 1.5 0 1.8-0.1 0.4-0.1 0.7-0.2 0.9-0.5 0.2-0.3 0.4-0.6 0.4-1.1 0-0.4-0.1-0.7-0.3-1s-0.5-0.5-0.8-0.6 -1.1-0.2-2.3-0.2H34.6z" class="l"/>
      <path d="M27.6 68.7h-2.8l-1.1-2.9h-5.1l-1.1 2.9h-2.8l5-12.9h2.8L27.6 68.7zM22.8 63.6l-1.8-4.8 -1.7 4.8H22.8z" class="p"/>
      <path d="M28.4 55.9h2.6v7c0 1.1 0 1.8 0.1 2.2 0.1 0.5 0.4 1 0.8 1.3 0.4 0.3 1 0.5 1.7 0.5 0.7 0 1.3-0.2 1.7-0.5 0.4-0.3 0.6-0.7 0.7-1.1s0.1-1.2 0.1-2.2v-7.1h2.6v6.8c0 1.5-0.1 2.6-0.2 3.3 -0.1 0.6-0.4 1.2-0.8 1.6s-0.9 0.8-1.5 1.1c-0.6 0.3-1.5 0.4-2.5 0.4 -1.2 0-2.2-0.1-2.8-0.4 -0.6-0.3-1.1-0.7-1.5-1.1 -0.4-0.5-0.6-0.9-0.7-1.4 -0.2-0.7-0.3-1.8-0.3-3.3L28.4 55.9 28.4 55.9z" class="p"/>
      <path d="M44.3 68.7V58h-3.8v-2.2h10.2v2.2h-3.8v10.7H44.3z" class="p"/>
      <path d="M51.6 62.4c0-1.3 0.2-2.4 0.6-3.3 0.3-0.7 0.7-1.2 1.2-1.8 0.5-0.5 1.1-0.9 1.7-1.2 0.8-0.3 1.7-0.5 2.8-0.5 1.9 0 3.4 0.6 4.6 1.8 1.1 1.2 1.7 2.8 1.7 4.9 0 2.1-0.6 3.7-1.7 4.9 -1.1 1.2-2.6 1.8-4.5 1.8 -1.9 0-3.4-0.6-4.6-1.8C52.1 66 51.6 64.4 51.6 62.4zM54.3 62.3c0 1.5 0.3 2.6 1 3.3s1.5 1.1 2.6 1.1 1.9-0.4 2.6-1.1 1-1.9 1-3.4c0-1.5-0.3-2.6-1-3.3 -0.6-0.7-1.5-1.1-2.6-1.1 -1.1 0-1.9 0.4-2.6 1.1C54.6 59.7 54.3 60.8 54.3 62.3z" class="p"/>
      <path d="M72.1 64v-2.2h5.6v5.1c-0.5 0.5-1.3 1-2.4 1.4s-2.1 0.6-3.1 0.6c-1.3 0-2.5-0.3-3.5-0.8 -1-0.6-1.8-1.4-2.3-2.4s-0.8-2.2-0.8-3.4c0-1.3 0.3-2.5 0.8-3.6 0.6-1 1.4-1.8 2.5-2.4 0.8-0.4 1.9-0.6 3.1-0.6 1.6 0 2.8 0.3 3.7 1 0.9 0.7 1.5 1.6 1.7 2.8l-2.6 0.5c-0.2-0.6-0.5-1.1-1-1.5 -0.5-0.4-1.1-0.5-1.9-0.5 -1.1 0-2 0.4-2.7 1.1 -0.7 0.7-1 1.8-1 3.2 0 1.5 0.3 2.7 1 3.4 0.7 0.8 1.6 1.1 2.7 1.1 0.5 0 1.1-0.1 1.6-0.3s1-0.5 1.4-0.8v-1.6L72.1 64 72.1 64z" class="p"/>
      <path d="M80.2 68.7V55.9h9.6v2.2h-7v2.9h6.5v2.2h-6.5v3.5h7.2v2.2H80.2z" class="p"/>
      <path d="M92.2 68.7V55.9h2.5l5.3 8.6v-8.6h2.4v12.9h-2.6l-5.2-8.4v8.4H92.2z" class="p"/>
      <path d="M476.5 279.7v22.3h2.4v-6.4h1.6v6.4h2.4v-14.3h1.6v14.3h2.4v-18.3h1.6v18.3h2.4v-12.7h1.6v12.7h2.4v-10.3h1.6v10.3h2.4V279.7H476.5zM474.9 278.1h25.5v25.5H474.9V278.1z" class="q"/>
          <path d="M486.4 332.3c-0.3 0-0.5 0.3-0.5 0.5 0 0.3 0.3 0.5 0.5 0.5 0.3 0 0.5-0.3 0.5-0.5C486.9 332.6 486.7 332.3 486.4 332.3zM487.6 330.3c-0.3 0-0.5 0.3-0.5 0.5s0.3 0.5 0.5 0.5c0.3 0 0.5-0.2 0.5-0.5S487.9 330.3 487.6 330.3zM485.1 330.1c-0.3 0-0.5 0.3-0.5 0.5 0 0.3 0.3 0.5 0.5 0.5 0.3 0 0.5-0.2 0.5-0.5C485.6 330.3 485.3 330.1 485.1 330.1zM482.4 326.4c0.2 0 0.4 0.2 0.4 0.4 0 1.3 0.5 1.8 0.8 2.1h0c0.4 0.1 1.2 0.7 2.6 0.7 1 0 1.6-0.2 2.1-0.4h0c0 0 0.1 0 0.1 0 0.1 0 1.3-0.3 1.3-2.3 0-0.2 0.2-0.4 0.4-0.4 0.2 0 0.4 0.2 0.4 0.4 0 1.6-0.7 2.4-1.2 2.8h0v0 0.7h1.6c0.2 0 0.4 0.2 0.4 0.4 0 0.2-0.2 0.4-0.4 0.4h-1.7v0c0 0.2-0.1 0.3-0.1 0.5v0l0.1 0c0.8 0.3 1.8 1 1.8 2.5 0 0.2-0.2 0.4-0.4 0.4 -0.2 0-0.4-0.2-0.4-0.4 0-1.2-0.8-1.7-1.4-1.8h0l0 0.1c-0.5 0.8-1.2 1.4-2 1.6H485.9c-0.8-0.3-1.6-0.8-2-1.6l0-0.1 -0.1 0c-0.6 0.2-1.3 0.7-1.3 1.8 0 0.2-0.2 0.4-0.4 0.4 -0.2 0-0.4-0.2-0.4-0.4 0-1.5 0.9-2.2 1.8-2.5l0-0.1 0-0.1c-0.1-0.2-0.1-0.3-0.1-0.5v0h-1.7c-0.2 0-0.4-0.2-0.4-0.4s0.2-0.4 0.4-0.4h1.6v-0.7c-0.5-0.4-1.2-1.2-1.2-2.8C482 326.6 482.2 326.4 482.4 326.4zM486.2 325.3c0.8 0 1.5 0.5 1.5 1.1v0l0 0c0.4 0.3 0.7 0.6 0.7 1.1 0 1-0.5 1.5-2.3 1.5 -1.8 0-2.3-0.4-2.3-1.5 0-0.5 0.3-0.8 0.7-1.1l0 0v-0.1C484.7 325.8 485.4 325.3 486.2 325.3z" class="d"/>
          <path d="M486.3 323c-3.8 0-6.9 3.1-6.9 6.9 0 3.8 3.1 6.9 6.9 6.9 3.8 0 6.9-3.1 6.9-6.9C493.2 326.1 490.1 323 486.3 323zM486.3 321.5c4.6 0 8.4 3.8 8.4 8.4 0 2-0.7 3.8-1.8 5.2l0 0 9.1 9.4 -1.1 1 -9-9.4 -0.1 0.1c-1.5 1.3-3.4 2-5.5 2 -4.6 0-8.4-3.8-8.4-8.4C477.9 325.2 481.7 321.5 486.3 321.5z" class="d"/>
          <rect x="496.6" y="336.8" transform="matrix(-0.7071 0.7071 -0.7071 -0.7071 1092.1492 231.1297)" width="3.3" height="10" class="d"/>
      <rect x="475.9" y="319.5" width="23" height="23" class="r"/>
</svg>
